<?xml version="1.0" encoding="UTF-8"?>
<svg id="Layer_1" data-name="Layer 1" xmlns="http://www.w3.org/2000/svg" viewBox="0 0 700.56 1002.96">
  <defs>
    <style>
      .cls-1 {
        fill: #000;
      }

      .cls-1, .cls-2 {
        stroke-width: 0px;
      }

      .cls-2 {
        fill: #fff;
      }
    </style>
  </defs>
  <g id="Layer_1-2" data-name="Layer 1">
    <g>
      <path class="cls-2" d="M700.56,1002.96H0C0,668.64,0,334.32,0,0,233.52,0,467.04,0,700.56,0v1002.96ZM191.27,513.26c-1.45.91-2.46,1.58-3.49,2.2-5.46,3.26-10.42,7.07-13.64,12.71-.46.81-.78,1.81-.82,2.74-.19,4.47-.33,8.95-.37,13.42-.19,19.87-.41,39.73-.46,59.6-.01,5.26,1.43,10.1,6.18,13.31,3.57,2.41,6.57,5.75,10.91,6.91,2.75.74,5.54,1.48,8.36,1.83,5.68.7,11.42.93,17.08,1.75,6.12.89,11.28,3.74,13.71,9.71,2.24,5.51,3.46,11.33,1.89,17.35-.08.3.08.66.14,1,.17.95.45,1.89.49,2.85.17,4.54.25,9.08.42,13.62.07,1.95.5,3.91.38,5.85-.4,6.27-.99,12.52-1.47,18.78-.12,1.53-.27,3.09-.09,4.6.48,4.05,3.04,5.65,6.92,4.48,3.87-1.16,5.2-2.7,5.27-6.51.16-8.95.32-17.9.3-26.85,0-3.69-.46-7.39-.69-11.08-.3-4.67-.76-9.34-.83-14.01-.07-4.41,1.73-8.32,4.32-11.81.68-.91,1.72-1.72,2.77-2.14,2.65-1.07,5.35-2.05,8.11-2.8,3.43-.93,4.83-.05,5.98,3.33.22.66.35,1.35.52,2.03.35,1.35.77,2.69,1.05,4.05.28,1.35.61,2.74.59,4.11-.07,6.29-.28,12.58-.4,18.86-.07,3.71-.09,7.42-.12,11.12-.09,9.93-.23,19.87-.24,29.8,0,2.47.74,4.84,2.31,6.84,1.54,1.96,3.91,2.61,5.49,1.18,2.06-1.88,4-4.08,4-7.09.02-10.7-.01-21.41-.15-32.11-.13-10.28-.46-20.55-.64-30.83-.07-4.32,1.19-8.25,3.73-11.79.93-1.3,1.99-2.08,3.59-2.18,3.9-.26,7.8-.5,11.69-.87,3.47-.33,7-.49,10.36-1.3,5.29-1.28,10.16-3.63,13.88-7.8.8-.89,1.65-2.15,1.65-3.25,0-1.9.7-3.52,1.13-5.27.47-1.88.88-3.84.88-5.77-.01-7.48-.24-14.96-.31-22.44-.06-6.3-.07-12.59,0-18.89.07-7.83.32-15.67.32-23.5,0-2.63-.38-5.29-.84-7.9-.36-2.01-1.6-2.96-3.24-3.04-3.12-.15-7.42,3.38-7.73,6.51-.25,2.5-.32,5.02-.36,7.53-.02,1.31-.49,1.97-1.83,1.95-2.31-.04-4.67.25-6.91-.17-7.34-1.36-14.68-2.8-21.94-4.56-5.22-1.27-10.25-3.33-15.47-4.59-4.02-.97-6.63-3.29-8.75-6.6-1.07-1.67-1.14-3.25-.24-4.93.4-.74.87-1.44,1.25-2.19,1.26-2.48,3.32-3.39,6.02-3.3,4.26.14,8.53.2,12.79.29,14.61.32,29.22.62,43.83.96,4.19.1,8.39.25,12.57.47,2.16.12,4.33.31,6.45.71,5.19.98,10.48,1.57,15.64.7,7.35-1.25,14.74-1.44,22.12-1.81,8.52-.43,17.04-.67,25.57-.84,10.98-.23,21.96-.32,32.94-.45.9-.01,1.82.06,2.7.25,2.53.54,5.89,5.71,5.35,8.23-.11.53-.37,1.06-.65,1.53-2.03,3.48-4.39,6.54-8.87,6.86-.34.02-.68.17-1.01.28-9.32,3.26-18.89,5.59-28.53,7.66-4.74,1.02-9.48,1.75-14.33,1.51-2.06-.1-2.24-.32-2.3-2.37-.06-2.1-.11-4.19-.21-6.28-.2-4.1-3.05-5.92-6.4-7.17-1.96-.73-3.45-.01-4.28,1.91-.44,1.01-.67,2.13-.9,3.22-.69,3.19-.19,6.38-.15,9.59.16,11.68.09,23.37.04,35.05-.04,8.32-.21,16.64-.25,24.97-.01,2.73.25,5.44,1.43,7.99.34.74.65,1.67.5,2.42-.42,2.09.62,3.5,1.88,4.86,2.42,2.61,5.38,4.41,8.57,5.92,5.06,2.4,10.47,2.82,15.94,3.07,3.9.18,7.8.5,11.69.88.82.08,1.83.54,2.33,1.17,2.74,3.47,4.64,7.35,4.58,11.89-.07,5.52-.28,11.04-.4,16.57-.12,5.73-.25,11.47-.31,17.2-.09,9.52-.09,19.03-.19,28.55-.03,3.16,1.29,5.69,3.37,7.88,1.9,2.01,4.19,1.92,6.01-.17.54-.62.95-1.38,1.3-2.14.96-2.06,1.28-4.25,1.27-6.53-.06-10.63-.06-21.27-.1-31.91-.02-5.11-.02-10.22-.12-15.32-.12-6.38-1.54-12.81.97-19.05.15-.38.07-.87.26-1.22.67-1.28,1.33-2.57,2.14-3.75.7-1.03,1.75-1.24,2.98-.85,2,.62,4.02,1.2,6.06,1.69,4.08.98,6.76,3.5,8.28,7.33.62,1.56,1.49,3.13,1.6,4.74.28,3.89.34,7.8.2,11.7-.12,3.27-.91,6.52-.96,9.79-.14,10.91-.09,21.83-.11,32.74,0,5.08,1.17,6.21,6.21,7.71.27.08.55.08.82.15,1.91.49,3.4-.27,4.24-1.88.62-1.19,1.09-2.66,1.03-3.97-.19-3.83-.76-7.63-1.03-11.46-.28-3.9-.81-7.85-.48-11.71.52-6.01.71-11.99.7-18.01,0-1.22.38-2.44.55-3.66.05-.38,0-.79-.06-1.18-.15-.95-.58-1.92-.48-2.83.46-3.94.8-7.93,1.7-11.78,1.5-6.38,7.55-11.43,14.06-12.09,5.14-.52,10.31-.72,15.43-1.42,3.78-.52,7.54-1.41,11.19-2.5,4.32-1.3,7.48-4.55,10.95-7.24,2.78-2.15,4.48-5.01,4.96-8.48.31-2.26.4-4.57.39-6.86-.06-7.83-.28-15.66-.31-23.5-.06-15.18-.06-30.37-.03-45.55,0-1.61-.43-2.95-1.21-4.34-2.06-3.62-5.1-6.3-8.3-8.79-1.92-1.49-4.1-2.64-6.13-4-.72-.48-1.31-1.15-1.96-1.73.6-.62,1.12-1.35,1.81-1.83,1.03-.71,2.23-1.18,3.29-1.84,5.14-3.2,9.9-6.81,13.09-12.13.75-1.25,1.1-2.49,1.1-3.95.07-15.11.2-30.22.29-45.33.05-7.42.05-14.83.07-22.25,0-1.75.04-3.5,0-5.25-.11-4.84-1.46-9.08-5.7-11.98-1.73-1.18-3.42-2.44-4.99-3.83-2.67-2.36-5.85-3.5-9.23-4.22-7.33-1.55-14.75-2.39-22.22-2.77-5.86-.3-12.22-5.04-14.2-10.56-1.34-3.73-1.83-7.6-1.96-11.52-.06-1.94.36-3.89.29-5.83-.13-3.77-.59-7.52-.65-11.29-.12-7.05-.12-14.11-.04-21.17.03-2.29.38-4.58.75-6.85.42-2.57.79-5.12.02-7.68-.56-1.89-1.64-3.23-3.73-3.49-4.48-.55-8.46,2.93-8.49,7.47-.02,3.36,0,6.72.03,10.07.08,9.5-.4,19.02.79,28.5.43,3.39.37,6.84.66,10.25.43,5.11-.94,9.68-3.91,13.81-1.09,1.51-2.5,2.63-4.31,3.19-2.34.72-4.66,1.49-7.02,2.13-3.05.83-3.91.43-5.39-2.36-.39-.73-.64-1.55-.86-2.35-.39-1.41-.6-2.88-1.07-4.27-.73-2.18-.77-4.39-.59-6.63.14-1.74.31-3.48.33-5.23.13-9.93.21-19.87.34-29.8.09-6.71.27-13.43.32-20.14.02-3.34-.69-6.54-2.71-9.31-1.43-1.96-3.79-2.49-5.47-.89-2.05,1.97-3.93,4.21-3.93,7.36,0,3.57-.05,7.14,0,10.7.28,17.06.57,34.13.89,51.19.09,4.98-1.51,9.34-4.6,13.17-.42.53-1.21.99-1.87,1.05-5.28.48-10.57.99-15.87,1.24-7.7.37-14.45,2.97-20.2,8.12-1.21,1.08-2.35,2.37-2.33,4.08.03,2.26-.85,4.22-1.5,6.28-.33,1.05-.62,2.17-.61,3.25.04,5.45.27,10.91.29,16.36.06,15.18.07,30.36.07,45.55,0,.97-.15,1.95-.27,2.91-.41,3.26.12,6.43,1.1,9.5.78,2.45,2.26,3.03,4.76,2.29,3.96-1.17,6.14-4.05,6.26-8.18.06-1.95.19-3.9.31-5.86.06-1.01.66-1.51,1.66-1.49,2.45.03,4.95-.26,7.33.18,7.34,1.35,14.69,2.77,21.94,4.55,5.42,1.33,10.67,3.33,16.05,4.85,2.48.7,4.4,1.9,5.94,3.98,3.33,4.5,3.27,6.39-.46,10.65-1.33,1.53-2.83,2.27-4.94,2.17-7.19-.33-14.39-.56-21.59-.75-13.07-.34-26.14-.71-39.21-.91-6.65-.1-13.24-.59-19.83-1.51-3.78-.53-7.59-.91-11.48-.36-5.8.82-11.65,1.47-17.51,1.75-10.05.48-20.12.65-30.19.88-9.09.21-18.18.34-27.27.52-1.4.03-2.79.21-4.19.21-2.3-.01-4.62.03-6.9-.23-2.49-.28-6.23-5.31-6.01-7.8.01-.14.03-.28.08-.41,1.48-3.41,3.38-6.54,7.11-7.8,4.83-1.64,9.69-3.21,14.62-4.5,6.15-1.61,12.37-2.93,18.57-4.34,4.18-.95,8.41-1.34,12.7-1.17,2.26.09,2.52.39,2.61,2.59.1,2.3.1,4.63.45,6.9.19,1.23.74,2.7,1.64,3.46,1.4,1.19,3.17,2.02,4.89,2.74,1.49.63,2.73.08,3.54-1.35.48-.84.83-1.78,1.06-2.72.72-2.94.88-5.93.53-8.95-.12-1.04-.23-2.09-.23-3.13-.02-12.1-.07-24.21-.01-36.31.03-6.5.34-13,.3-19.5-.02-3.89.03-7.86-1.74-11.52-.18-.36-.3-.83-.24-1.22.41-3-1.34-4.86-3.41-6.52-5.74-4.63-12.29-6.98-19.69-7.26-5.16-.19-10.31-.75-15.45-1.22-.61-.06-1.34-.46-1.72-.94-3.01-3.7-4.71-7.94-4.65-12.74.08-6.43.32-12.86.49-19.29,0-.14.03-.28.03-.42,0-3.63,0-7.26,0-10.89,0-2.31-.03-4.62.03-6.92.2-7.55.49-15.09.62-22.64.05-3-.86-5.74-2.71-8.21-2.3-3.07-5.69-3.01-7.6.32-1.2,2.09-1.89,4.38-1.87,6.8.13,17.84.29,35.67.44,53.51,0,.7.08,1.4.21,2.08.97,5.12-1.02,9.76-2.37,14.51-.11.39-.41.73-.64,1.08-.97,1.44-2.23,2.01-3.97,1.47-2.53-.79-5.08-1.53-7.63-2.27-1.98-.57-3.45-1.83-4.61-3.46-1.59-2.25-3-4.69-3.17-7.45-.29-4.66-.38-9.35-.24-14.01.15-4.95.89-9.88,1-14.83.2-8.6.11-17.21.14-25.82.02-4.29-1.3-6.07-5.44-7.3-.53-.16-1.09-.26-1.64-.36-2.49-.46-4.01.35-4.9,2.76-.72,1.93-1.05,3.94-.55,5.97,1.51,6.25,1.18,12.64,1.38,18.98.12,3.69-.22,7.4-.37,11.11-.08,2.02-.19,4.05-.3,6.07-.11,2.22-.52,4.47-.31,6.66.63,6.39.07,12.54-2.7,18.41-.82,1.75-2.11,3.07-3.61,4.28-3.9,3.14-8.41,4.21-13.28,4.41-2.93.12-5.85.39-8.76.74-3.11.38-6.26.7-9.28,1.48-2.81.73-5.66,1.71-8.15,3.16-2.75,1.6-5.15,3.83-7.65,5.86-1.96,1.59-3.21,3.66-3.88,6.1-.78,2.85-.95,5.73-.85,8.71.26,7.83.34,15.66.38,23.49.07,14.55.18,29.11,0,43.66-.05,3.69,1.24,6.48,3.48,9.08.73.85,1.53,1.63,2.32,2.42,3.34,3.35,7.12,6.07,11.37,8.16.9.44,1.68,1.13,2.95,2.01ZM542.39,284.59s0,.09,0,.14c1.26,0,2.52,0,3.78,0,1.54,0,3.09.1,4.61-.05,2.28-.23,4.56-.59,6.82-.98,1.55-.27,2.48-1.17,2.51-2.87.02-1.19.22-2.37.22-3.55.02-3.74-1.25-4.95-4.92-4.78-5.38.24-10.75.53-16.13.68-8.39.23-16.78.34-25.17.56-2.23.06-4.48.19-6.69.48-6.02.81-12.01,1.79-18.03,2.56-4.78.62-9.58,1.06-14.37,1.53-4.38.43-8.76.82-13.14,1.19-2.3.2-4.6.41-6.9.45-1.76.03-2.36-.56-2.73-2.28-.19-.88-.2-1.81-.42-2.69-.91-3.66-1.89-7.31-2.78-10.97-.19-.79-.43-1.73-.19-2.45.98-2.95,2.37-5.59,5.99-5.91.69-.06,1.37-.26,2.06-.36,6.42-.96,12.82-2.01,19.26-2.84,3.45-.45,6.94-.62,10.43-.75,4.6-.17,9.22-.03,13.82-.3,6.27-.37,12.53-.97,18.79-1.55,6.53-.6,13.07-1.17,19.58-1.99,4.36-.56,8.61-.91,12.73,1.08.55.26,1.23.42,1.83.36,2.43-.21,4.87-.45,7.28-.83,1.21-.19,2.26-.9,2.62-2.17.88-3.1.83-6.11-1.28-8.76-.41-.52-.99-1.1-1.59-1.25-1.61-.4-3.27-.67-4.93-.82-3.34-.32-6.68-.58-10.03-.76-4.41-.24-8.82-.31-12.97,1.65-.55.26-1.21.33-1.83.38-8.41.73-16.83,1.39-25.24,2.18-4.17.39-8.32.98-12.47,1.48-6.43.78-12.77,2.56-19.35,1.5-.75-.12-1.54,0-2.3.04-3.49.22-6.98.38-10.45.7-5.84.54-11.7.99-17.49,1.87-2.53.38-4.1-.23-5.55-2.17-2.93-3.92-6.08-7.68-8.93-11.66-5.07-7.07-10.66-13.66-16.82-19.8-6.88-6.87-13.7-13.79-20.46-20.77-2.67-2.76-5.16-5.7-7.69-8.6-3.67-4.22-7.05-8.73-10.99-12.67-6.18-6.17-12.66-12.05-19.15-17.9-3.74-3.37-7.86-3.24-11.72.15-4.52,3.97-8.94,8.05-13.39,12.09-7.18,6.52-12.83,14.41-19.31,21.55-7.76,8.55-15.49,17.12-23.97,24.97-5.42,5.01-10.2,10.55-14.7,16.37-4.4,5.7-8.78,11.42-13.11,17.18-.97,1.3-2.13,1.68-3.65,1.42-1.31-.23-2.62-.43-3.94-.58-4.3-.49-8.59-1.14-12.91-1.37-6.49-.33-13-.33-19.49-.53-2.09-.07-4.19-.27-6.26-.53-8.17-1.05-16.32-2.22-24.5-3.19-3.81-.45-7.66-.53-11.49-.84-2.78-.22-5.57-.47-8.34-.83-1.78-.23-3.53-.7-5.3-1.04-1.98-.38-3.96-1-5.94-1.03-3.7-.06-7.41.11-11.1.41-3.05.25-6.08.78-9.11,1.27-.5.08-1.05.48-1.36.9-2.12,2.77-2.56,5.86-1.32,9.09.27.7,1,1.52,1.69,1.71,3.56,1.02,7.15,1.93,10.86.52,2.78-1.05,5.63-1.63,8.63-1.12,9.52,1.63,19.14,2.24,28.76,2.78,3.97.22,7.93.74,11.9.97,4.6.27,9.21.36,13.81.54,3.06.12,6.14.08,9.18.42,4.37.49,8.7,1.23,13.05,1.9,3.93.6,7.86,1.21,11.77,1.92.83.15,1.79.61,2.33,1.23,1.98,2.27,2.89,4.75,1.92,7.91-1.2,3.93-2.01,7.99-2.89,12.01-.47,2.16-1.02,2.76-3.19,2.8-.77.01-1.54-.02-2.3-.1-2.57-.24-5.14-.52-7.71-.75-3.55-.32-7.1-.57-10.64-.9-3.82-.36-7.64-.77-11.46-1.19-3.26-.36-6.52-.7-9.77-1.16-3.66-.52-7.29-1.45-10.97-1.69-7.6-.49-15.22-.68-22.83-.93-8.11-.26-16.21-.46-24.32-.66-.83-.02-1.68.07-2.5.24-1.46.31-2.15,1.13-2.19,2.63-.05,1.75-.05,3.5.03,5.25.09,1.91.48,2.5,2.38,2.93,2.17.49,4.39.96,6.6,1.02,5.59.15,11.19.03,16.79.1,2.72.04,5.49.02,8.16.47,10.7,1.79,21.45,2.88,32.3,2.9,3.35,0,6.72.1,10.05.45,4.86.51,9.67,1.52,14.53,1.86,3.19.22,6.54,3.85,6.21,6.96-.26,2.35-.2,4.76-.06,7.13.11,1.95.46,4.03,2.18,5.25,2.33,1.65,4.9,2.23,7.73,1.04,2.72-1.14,4.5-3.03,5.23-5.86.49-1.89.9-3.81,1.34-5.72.85-3.68,3.55-5.84,7.37-5.76,2.02.04,4.04.27,6.07.36,8.18.39,16.24,1.7,24.26,3.27,7.47,1.46,14.96,2.87,22.6,3.09,1.63.05,2.81.89,3.58,2.22.62,1.08,1.15,2.26,1.45,3.46.71,2.81,2.24,5.11,4.21,7.15,2.86,2.95,7.75,2.31,9.83-1.27,1.35-2.32,2.19-4.81,2.47-7.51.56-5.28,1.16-10.55,1.8-15.82.6-4.91.67-9.75-1.34-14.43-.61-1.41-1.07-2.89-1.48-4.37-1.33-4.77-4.29-8.2-8.43-10.81-3.19-2.01-6.28-4.18-9.36-6.37-2.9-2.07-6.02-3.59-9.58-3.96-2.7-.29-5.43-.42-8.15-.46-4.33-.06-8.67.05-13.01.01-2.78-.02-3.46-.66-4.48-3.24-1.05-2.64-.53-4.92,1.26-7.01,4.51-5.25,8.74-10.77,13.58-15.7,11.66-11.88,23.61-23.48,35.45-35.18,3.35-3.31,7.17-6,11.14-8.52,2.59-1.64,5.04-3.51,7.45-5.41,1.83-1.45,1.96-1.48,3.86.08,1.94,1.59,3.86,3.29,6.04,4.49,4.2,2.32,8.01,5.16,11.45,8.45,7.68,7.35,15.33,14.73,22.8,22.29,7.13,7.2,14.08,14.59,21.02,21.99,2.39,2.54,4.55,5.31,6.75,8.03,1.92,2.38,1.5,4.93.38,7.51-.99,2.27-2.97,2.25-4.96,2.25-5.66,0-11.33-.08-16.99,0-4.14.05-8.01,1.25-11.48,3.52-4.16,2.71-8.25,5.51-12.35,8.31-2.23,1.52-4.23,3.37-5.23,5.89-1.62,4.09-2.98,8.28-4.36,12.46-.32.97-.36,2.06-.38,3.1-.15,8.28,1.45,16.4,2.47,24.57.27,2.13,1.33,4.27,2.44,6.16,1.98,3.38,6.89,3.85,9.57,1,1.92-2.04,3.57-4.28,4.19-7.15.24-1.13.86-2.2,1.4-3.26.92-1.8,2.41-2.4,4.45-2.54,4.52-.3,9.05-.74,13.53-1.44,7.1-1.12,14.14-2.7,21.25-3.7,5.8-.81,11.67-1.15,17.52-1.48,3.5-.2,6.15,2,7.03,5.39.49,1.89.89,3.81,1.33,5.72.81,3.6,3.21,5.62,6.61,6.6,3.43.99,7.32-1.13,8.28-4.56.28-.99.3-2.06.34-3.1.1-2.58-.05-5.19.27-7.74.38-3.06,2.59-4.92,5.64-5.27,3.47-.4,6.94-.78,10.4-1.21,1.94-.24,3.86-.74,5.8-.84,4.82-.24,9.65-.18,14.47-.48,6.06-.38,12.11-.93,18.15-1.53,3.26-.33,6.48-1.13,9.74-1.36,4.95-.34,9.92-.37,14.88-.54ZM156.65,741.36h0c-3.29-.01-6.58-.16-9.86.04-2.34.14-4.66.75-6.98,1.15-1.4.24-2.02,1.18-2.08,2.5-.07,1.82-.16,3.64-.07,5.45.1,1.85.86,2.66,2.77,2.74,2.57.12,5.16.03,7.73-.02,7.34-.13,14.68-.26,22.02-.44,4.54-.11,9.09-.2,13.62-.49,4.04-.26,8.07-.73,12.09-1.21,2.97-.35,5.92-.93,8.89-1.31,3.39-.43,6.8-.75,10.2-1.13,2.64-.29,5.26-.66,7.9-.9,3.68-.33,7.38-.58,11.07-.84,2.92-.2,5.85-.43,8.78-.51,2.27-.06,2.61.36,3.1,2.52.94,4.15,1.97,8.28,2.9,12.43.24,1.07.49,2.25.26,3.28-.73,3.2-2.31,5.71-6.03,5.97-.35.02-.69.11-1.03.17-6.21.95-12.41,1.99-18.63,2.82-3.52.47-7.09.71-10.64.85-4.53.17-9.08-.04-13.61.22-6.55.38-13.08,1.1-19.63,1.54-6.41.43-12.82.76-19.15,1.95-4.79.9-9.51.88-14.26-.76-3.23-1.11-6.66-.49-9.83.81-.7.29-1.52,1.01-1.71,1.7-.59,2.08-.98,4.27-.15,6.39.59,1.49,1.19,3.12,2.93,3.61,1.73.5,3.52,1,5.31,1.08,5.65.26,11.32.35,16.98.46.82.02,1.71-.08,2.46-.38,2.82-1.15,5.72-1.67,8.76-1.86,6.27-.39,12.53-.96,18.79-1.55,4.65-.44,9.29-1.01,13.93-1.58,4.85-.59,9.67-1.47,14.54-1.81,5.43-.38,10.9-.18,16.34-.44,4.18-.2,8.34-.71,12.51-1.1,3.2-.3,6.39-.62,9.58-.99,1.5-.18,2.5.42,3.38,1.58,2.95,3.9,6.09,7.67,8.92,11.66,5.24,7.38,11.02,14.26,17.52,20.56,5.32,5.16,10.55,10.41,15.67,15.77,4.3,4.5,8.42,9.16,12.54,13.83,3.33,3.77,6.4,7.79,9.84,11.45,3.77,4.03,7.83,7.79,11.78,11.65,2.21,2.15,4.39,4.3,5.59,7.25.58,1.43,1.79,2.07,3.36,2.05,1.75-.03,3.5-.08,5.24.03,2.1.13,3.5-.77,4.31-2.64,1.05-2.43,2.77-4.34,4.68-6.12,1.79-1.67,3.58-3.34,5.32-5.06,2.54-2.5,5.16-4.94,7.52-7.6,6.41-7.21,12.57-14.65,19.07-21.77,5.33-5.83,10.92-11.43,16.57-16.94,5.77-5.62,11.3-11.43,16.1-17.93,4.11-5.57,8.42-10.99,12.64-16.48.71-.92,1.47-1.65,2.8-1.46,2.35.33,4.71.61,7.07.85,4.86.49,9.72,1.11,14.59,1.38,5.65.3,11.32.28,16.97.41,1.26.03,2.53-.02,3.77.17,7.24,1.1,14.44,2.52,21.78,2.97,6.27.38,12.53,1,18.78,1.59,2.98.28,6.08.31,8.88,1.22,2.93.95,5.8,1.37,8.82,1.34,6.14-.05,12.3.03,18.32-1.44.79-.19,1.67-.81,2.13-1.49,1.7-2.5,2.05-5.29,1.28-8.22-.31-1.19-1.04-1.99-2.18-2.35-3.52-1.11-7.05-1.73-10.67-.36-3.35,1.27-6.79,1.45-10.32.83-3.02-.53-6.06-1.09-9.11-1.35-6.33-.54-12.68-.85-19.02-1.32-4.46-.33-8.9-.87-13.36-1.14-3.62-.22-7.26-.16-10.88-.27-3.48-.11-6.99-.05-10.44-.48-7.34-.91-14.65-2.06-21.96-3.19-1.91-.3-3.92-.58-5.17-2.39-1.43-2.06-1.95-4.34-1.39-6.78.99-4.35,2.06-8.69,3.1-13.03.46-1.92,1.11-2.45,3.07-2.37,1.95.08,3.91.22,5.85.41,8.48.81,16.97,1.52,25.42,2.52,5.05.6,10.19.51,15.14,1.97,1.06.31,2.2.4,3.31.48,5.92.42,11.84.96,17.77,1.17,11.25.41,22.51.56,33.75.96,2.04.07,3.93-1.39,3.96-3.64.02-1.6-.17-3.21-.19-4.81-.02-1.49-.78-2.4-2.17-2.68-2.25-.45-4.52-1.06-6.79-1.11-6.57-.15-13.15-.04-19.73-.05-1.11,0-2.23-.1-3.34-.24-5.96-.73-11.92-1.41-17.86-2.26-6.33-.91-12.68-.85-19.04-.93-2.65-.03-5.32-.15-7.95-.46-4.71-.55-9.4-1.31-14.1-1.92-4.2-.54-6.07-2.69-6.14-6.98-.04-2.79-.16-5.59-.39-8.37-.17-1.97-1.08-3.53-2.97-4.51-4.73-2.45-10.19-.3-11.81,4.83-.67,2.13-1.07,4.34-1.63,6.5-.9,3.5-3.55,5.66-7.17,5.52-4.6-.18-9.24-.33-13.79-.98-7.88-1.11-15.69-2.68-23.55-3.89-4.89-.76-9.82-1.45-14.76-1.72-2.75-.15-4.31-1.27-5.31-3.58-.36-.83-.62-1.7-.9-2.57-.9-2.79-2.43-5.19-4.53-7.21-2.26-2.16-6.47-1.98-8.46.43-1.48,1.79-2.71,3.77-3.01,6.14-.85,6.79-1.72,13.57-2.45,20.38-.37,3.47-.54,6.96.75,10.35,1.1,2.87,2.08,5.79,3.04,8.71,1.05,3.2,3.16,5.56,5.8,7.51,1.07.79,2.24,1.42,3.35,2.16,2.38,1.59,4.82,3.11,7.11,4.81,4.1,3.03,8.5,5.06,13.73,4.94,4.2-.1,8.39-.12,12.59-.07,2.3.03,4.6.28,6.89.43,1.19.08,1.85.78,2.38,1.78,1.72,3.26,1.21,6.19-1.15,8.9-3.86,4.43-7.5,9.07-11.61,13.25-12.11,12.32-24.39,24.48-36.65,36.64-1.98,1.96-4.15,3.77-6.42,5.39-3.74,2.69-7.63,5.16-11.44,7.74-.8.54-1.37.24-2.07-.24-1.72-1.2-3.53-2.26-5.25-3.46-3.15-2.19-6.51-4.16-9.35-6.71-6.03-5.42-11.84-11.09-17.62-16.79-5.43-5.35-10.8-10.77-16-16.35-6.1-6.54-12.02-13.25-17.94-19.96-2.51-2.85-2.63-6.08-.54-9.21.3-.45.94-.9,1.46-.94,2.64-.24,5.29-.45,7.94-.48,4.4-.06,8.79.1,13.19.03,3.87-.06,7.41-1.33,10.63-3.46,4.02-2.66,8.02-5.35,11.99-8.08,2.83-1.94,5.04-4.42,6.19-7.73,1.14-3.3,2.46-6.56,3.34-9.94.59-2.26.74-4.68.74-7.03,0-2.36-.4-4.73-.68-7.08-.55-4.57-.94-9.18-1.77-13.7-.46-2.49-1.36-5.02-2.62-7.22-1.85-3.22-6.65-3.58-9.27-.97-2.15,2.15-3.82,4.58-4.57,7.64-.34,1.38-1.15,2.68-1.93,3.9-.67,1.05-1.79,1.49-3.07,1.53-8.62.3-17.06,1.91-25.48,3.63-9.06,1.85-18.24,2.65-27.45,3.07-3.76.17-6.36-1.88-7.32-5.54-.55-2.09-1-4.21-1.56-6.3-.88-3.24-3.19-5-6.29-5.83-4.18-1.13-8.05,1.28-8.63,5.58-.33,2.4-.25,4.88-.14,7.31.2,4.4-2.09,7.6-6.3,7.78-1.67.07-3.32.4-4.98.63-3.39.46-6.76,1.07-10.16,1.37-8.56.77-17.19-.03-25.74,1.28-3.51.54-7.1.61-10.61,1.16-5.53.87-11.04,1.71-16.67,1.38-1.25-.08-2.52-.01-3.78-.01ZM501.26,649.12c7.47-.44,13.84.13,20.14,1.65,4.38,1.05,5.71,2.54,5.77,7.1,0,.28-.03.56,0,.84.22,1.67-.6,2.76-1.89,3.69-2.89,2.09-6.13,3.08-9.64,2.9-4.67-.24-9.33-.75-14-.96-3.13-.14-6.29-.13-9.41.15-2.17.2-3.91,2.14-4.01,3.75-.1,1.6,1.45,3.42,3.75,3.98,2.3.56,4.65,1.08,7,1.2,5.23.28,10.48.22,15.72.49,2.63.14,5.26.62,7.86,1.11,2.2.41,3.31,2.06,3.7,4.1.32,1.72.31,3.49-.67,5.09-1.02,1.67-2.02,3.35-3.03,5.03-.82,1.36-2.06,2.07-3.62,2.18-6.2.44-12.4.87-18.6,1.28-4.73.32-9.47.46-13.9,2.55-2.19,1.03-4.13,3.58-4.19,6.04-.03,1.48.56,2.64,1.88,3.25,1.19.55,2.47,1.1,3.75,1.24,5.41.61,10.82,1.26,16.25,1.51,3.82.18,7.72.07,11.5-.5,5.56-.84,10.4-3.64,14.96-6.79,1.67-1.15,3.15-2.86,4.14-4.63,1.56-2.78,2.96-5.74,3.84-8.79,2.43-8.52,3-17.35,3.29-26.13.33-9.91.18-19.85.05-29.77-.05-3.54-1.84-6.45-4.7-8.52-3.66-2.65-7.69-1.03-8.41,3.38-.42,2.54-.59,5.13-.74,7.71-.33,5.7-3.1,8.09-8.29,7.33-3.79-.55-7.63-.75-11.44-1.2-4.35-.52-8.8-.35-12.98-2.05-.94-.38-2.06-.44-3.09-.42-1.81.03-3.62.23-5.43.37-3.62.27-5.21,1.74-5.83,5.38-.35,2.09.08,3.17,1.92,4.17.97.53,2.04.99,3.12,1.18,2.67.47,5.37.92,8.08,1.1,2.71.18,5.45.04,7.17.04ZM154.01,648.97c-.16,0-.32,0-.48,0,.18,4.4.25,8.81.59,13.19.4,5.15,1.07,10.27,1.56,15.41.56,5.92,1.94,11.61,4.95,16.75,1.17,2.01,2.7,4.02,4.54,5.4,4.39,3.28,9.3,5.67,14.67,6.98.61.15,1.23.26,1.86.3,6.7.43,13.4.44,20.08-.45,2.69-.36,5.45-.51,8.05-1.21,4.48-1.2,5.38-4.52,2.38-8.06-.53-.63-1.16-1.33-1.89-1.62-2.13-.85-4.28-1.78-6.51-2.19-2.8-.52-5.69-.58-8.54-.78-6.13-.45-12.26-.83-18.38-1.33-.82-.07-1.88-.49-2.34-1.11-1.65-2.24-3.4-4.49-4.53-7-1.75-3.89.4-7.72,4.58-8.56,2.25-.45,4.56-.72,6.85-.82,3.49-.15,7,.09,10.48-.14,3.75-.24,7.5-.71,11.21-1.32,1.23-.2,2.5-.95,3.46-1.78,1.58-1.37,1.48-3.04.06-4.6-1.27-1.39-2.91-1.92-4.72-1.88-3.21.07-6.43.19-9.64.37-3.27.18-6.55.4-9.82.7-4.18.39-8.11-.24-11.54-2.77-.79-.58-1.58-1.48-1.88-2.39-1.45-4.4.77-8.14,5.23-9.23,8.44-2.07,16.97-2.41,25.59-1.64,4.38.39,8.57-.88,12.73-2.02,1.18-.32,2.05-1.16,2.42-2.42.86-2.89-.95-6.47-3.89-7.1-2.37-.51-4.84-.64-7.27-.78-1.09-.06-2.31.02-3.29.44-3.97,1.68-8.22,1.49-12.35,2.01-4.01.51-8.06.73-12.07,1.23-4.79.59-7.45-1.42-7.97-5.56-.11-.9-.16-1.8-.25-2.71-.22-2.29-.43-4.59-.67-6.87-.47-4.41-4.51-5.62-7.98-3.51-3.37,2.05-5.15,5.14-5.23,9.03-.12,6.01-.03,12.02-.03,18.03ZM544.14,378.39c.18-9.67-.76-19.27-1.87-28.84-.51-4.36-1.17-8.74-2.83-12.86-1.51-3.78-2.96-7.71-6.36-10.19-4.42-3.22-9.29-5.69-14.61-7.16-.8-.22-1.65-.3-2.48-.3-4.9-.04-9.8-.19-14.69-.01-3.75.13-7.5.6-11.23,1.08-1.35.17-2.73.67-3.93,1.31-1.44.76-2.28,2.11-2.01,3.83.33,2.11,1.32,3.98,3.23,4.9,2.18,1.05,4.51,1.98,6.87,2.39,3.22.56,6.53.61,9.8.82,5.02.33,10.05.54,15.06.95,1.54.13,3.41.02,4.42,1.52,1.63,2.42,3.33,4.87,4.5,7.52,1.38,3.11-.58,6.65-3.89,7.58-1.54.43-3.14.75-4.73.83-4.82.22-9.65.18-14.46.48-3.47.21-6.94.73-10.37,1.28-1.05.17-2.13.74-2.99,1.41-1.92,1.49-1.88,3.61-.03,5.17,1.46,1.23,3.21,1.76,5.06,1.73,3.28-.06,6.56-.24,9.84-.42,3.97-.22,7.93-.56,11.9-.72,3.58-.15,6.69,1.27,9.5,3.37.45.33.92.99.93,1.5,0,1.88-.12,3.76-.33,5.63-.17,1.53-1.15,2.54-2.6,2.99-1.6.49-3.22.93-4.84,1.32-5.75,1.39-11.63,2.02-17.48,1.39-3.72-.4-7.34-.63-10.99.12-2.38.49-4.78.98-7.12,1.62-1.16.31-2.11,1.08-2.5,2.34-.79,2.55.92,6.25,3.48,7.06,3.72,1.19,7.46,1.47,11.33.38,2.87-.81,5.85-1.31,8.82-1.67,5.4-.65,10.82-1.13,16.24-1.6.94-.08,1.98.04,2.85.37,2.82,1.08,3.89,3.38,4.11,6.26.22,2.99.33,6.01.88,8.95.73,3.9,4.33,5.37,7.71,3.25,3.21-2.01,5.13-4.94,5.28-8.8.23-5.59.36-11.18.54-16.77ZM195.86,361.79l.02-.25c1.82,0,3.64.04,5.45,0,2.09-.05,4.16-1.73,4.41-3.5.27-1.91-.65-3.37-3.06-4.14-1.98-.63-4.06-1.11-6.13-1.25-4.53-.3-9.08-.24-13.61-.53-3.75-.24-7.5-.7-11.23-1.19-1.93-.26-3.09-1.64-3.58-3.43-.52-1.91-.61-3.9.44-5.71,1.05-1.81,2.09-3.65,3.37-5.3.63-.81,1.71-1.52,2.71-1.73,2.31-.49,4.69-.77,7.05-.92,5.79-.36,11.58-.58,17.37-.91,3.32-.19,6.47-1.12,9.4-2.69,2.16-1.17,3.7-4.08,3.28-6.11-.52-2.53-2.51-3.34-4.7-3.88-.47-.12-.95-.25-1.44-.28-1.39-.09-2.83.06-4.18-.23-5.8-1.21-11.67-1.18-17.53-.99-2.84.09-5.76-.04-8.45,1.23-3.29,1.54-6.6,3.04-9.83,4.69-3,1.53-5.42,3.81-6.77,6.92-1.36,3.13-2.67,6.31-3.55,9.6-2,7.53-2.66,15.29-2.88,23.03-.29,10.34-.21,20.69-.03,31.03.07,3.93,2.15,7.09,5.7,8.96,3.33,1.76,6.59.12,7.34-3.52.21-1.02.32-2.07.43-3.11.27-2.5.37-5.02.79-7.49.64-3.75,3.44-5.51,7.2-4.85,1.65.29,3.31.5,4.98.64,3.89.33,7.8.53,11.69.92,2.21.22,4.49.46,6.57,1.16,3.86,1.3,7.72,1.13,11.58.45,2.8-.49,4.5-2.92,4.59-5.97.07-2.29-1.1-3.53-4.2-4.43-.33-.1-.68-.19-1.02-.23-5.01-.66-9.88-1.69-15.12-.97-7.52,1.04-15.04-.33-22.36-2.42-1.19-.34-2.12-1.01-2.64-2.2-.91-2.06-1.03-4.22-.7-6.38.11-.74.71-1.56,1.32-2.03,2.15-1.62,4.57-2.84,7.27-3.01,2.99-.19,6.01-.15,9.01.02,3.69.21,7.36.66,11.04,1.01ZM312.06,708.62c0-.11.01-.22.02-.33,2.09,0,4.19.06,6.28-.01,4.1-.13,7.75-1.53,11.07-3.95,5.74-4.21,8.86-10.1,10.15-16.84,1.15-6.01,1.77-12.1,1.45-18.31-.46-9.06-.19-18.15-1.35-27.19-.46-3.64-.02-7.38-.08-11.08-.02-1.25-.16-2.52-.46-3.73-.72-2.84-3.28-3.88-5.65-2.14-1.12.82-2.07,2.1-2.67,3.37-1.24,2.66-2.08,5.47-2.23,8.46-.11,2.13-.59,2.53-2.72,2.51-2.8-.02-5.6.06-8.39-.16-8.49-.68-16.88.32-25.26,1.43-1.28.17-2.62.63-3.69,1.33-1.94,1.26-2.1,3.5-.33,4.96,1.15.94,2.61,1.83,4.03,2.04,2.75.4,5.57.43,8.35.37,6.43-.15,12.85-.54,19.27-.62,2.42-.03,4.88.39,7.25.9.96.21,2.1,1.03,2.55,1.89,1.15,2.18.15,6.05-1.74,7.67-.74.63-1.58,1.16-2.4,1.69-5.5,3.55-11.62,3.84-17.8,3.04-4.45-.58-8.85-1.21-13.33-.63-1.97.26-3.84.75-5.47,1.94-2.31,1.68-2.65,4.56-.62,6.53.87.84,2.05,1.49,3.21,1.89,3.96,1.35,8,1.73,12.17.91,5.87-1.15,11.84-.88,17.77-.6,2.04.1,4.31.95,4.87,3.08,1.83,6.93.56,12.91-7.7,15.61-3.04.99-6.22.54-9.36.28-3.61-.3-7.25-.63-10.86-.54-4.55.11-7.47,3.16-10,6.52-2.38,3.16-2,4.82,1.65,6.2,2.72,1.04,5.58,1.88,8.46,2.29,4.48.64,9.03.84,13.55,1.23ZM383.5,708.29c0,.1.02.2.02.31,4.8-.38,9.63-.53,14.39-1.22,3-.44,5.95-1.51,8.79-2.65,2.87-1.15,3.1-2.38,1.43-5.05-1.43-2.28-3.23-4.29-5.56-5.61-1.54-.87-3.37-1.61-5.09-1.66-3.55-.11-7.11.29-10.67.45-2.44.11-4.89.38-7.32.21-5.05-.35-9.39-3.93-10.25-8.48-.36-1.89-.31-3.92-.05-5.83.35-2.67,2.57-4.76,5.32-4.81,5.02-.1,10.06.06,15.08.21,3.34.1,6.67.54,10,.51,2.51-.02,4.99-.65,7.17-2.07,3.12-2.04,3.16-5.48.06-7.49-.87-.56-1.85-1.07-2.84-1.3-3.07-.7-6.18-1.05-9.35-.72-4.23.44-8.47.88-12.71,1.05-4.54.19-8.63-1.35-12.42-3.82-2.37-1.54-3.6-3.55-3.51-6.45.1-3.03.53-3.72,3.56-4.48,4.2-1.05,8.47-.75,12.73-.6,6.63.24,13.27.54,19.9.67,2.32.05,4.34-1.09,5.92-2.76,1.49-1.57,1.37-3.27-.43-4.46-1.19-.78-2.64-1.34-4.04-1.58-2.82-.48-5.67-.79-8.53-.94-5.86-.31-11.72-.52-17.58-.65-2.51-.06-5.02.25-7.53.29-1.98.03-1.91-.05-2.4-2.05-.74-2.98-1.45-5.98-2.47-8.86-.46-1.3-1.48-2.57-2.57-3.46-1.96-1.61-3.83-1.14-4.99,1.12-.57,1.1-1.07,2.35-1.13,3.56-.12,2.5.09,5.02.14,7.53.03,1.46.1,2.93-.04,4.37-.26,2.71-.86,5.4-.97,8.11-.28,6.91-.22,13.85-.59,20.75-.3,5.64.36,11.17,1.42,16.65,1.54,7.95,5.34,14.49,12.51,18.77,2.65,1.58,5.44,2.51,8.54,2.46,2.03-.03,4.06,0,6.08,0ZM385.17,386.85c4.36-.21,8.63-.32,12.87-.65,2.92-.22,5.84-.61,8.7-1.2,1.22-.25,2.43-1.06,3.39-1.9,1.44-1.27,1.37-2.09.28-3.64-1.53-2.17-3.84-2.88-6.24-2.85-6.84.08-13.68.29-20.52.64-4.29.22-8.52.2-12.66-1.08-2.16-.67-2.75-1.6-2.85-3.82-.14-2.93,1.03-5.12,3.47-6.72,5.32-3.49,11.13-4.58,17.41-3.91,4.51.48,9.04.75,13.57.96,2.12.1,4.15-.51,6.01-1.59,1.57-.91,2.48-2.15,2.45-4.07-.03-1.91-.9-3.21-2.57-3.97-1.07-.49-2.19-.93-3.33-1.23-3.85-1.01-7.76-.85-11.65-.26-5,.75-10.03.88-15.06.57-5.48-.33-6.86-1.74-7.19-7.19-.18-2.97.28-5.93,2.52-8.18,3.03-3.04,6.79-4.38,11.05-4.07,2.71.19,5.4.82,8.11.91,2.92.1,5.95.24,8.75-.41,4.41-1.03,7.29-4.27,9.21-8.26.77-1.59.15-3-1.72-3.66-2.95-1.04-5.95-2.12-9.02-2.6-6.91-1.08-13.88-1.43-20.88-.97-2.73.18-5.22.86-7.57,2.18-6.88,3.87-10.86,9.9-12.8,17.4-1.3,5.05-1.55,10.24-1.6,15.39-.07,7.62.21,15.24.36,22.86.01.56.14,1.11.18,1.67.29,3.4.64,6.8.82,10.21.1,1.95-.21,3.91-.11,5.86.1,1.87.27,3.79.8,5.57.87,2.91,3.35,3.65,5.71,1.73.93-.76,1.77-1.88,2.17-3,.91-2.55,1.68-5.17,2.23-7.82.64-3.09.92-3.54,4.08-3.44,3.91.12,7.81.37,11.63.56ZM338.39,361.01s0,0,0,0c0-4.41.07-8.81-.02-13.22-.09-4.06-.6-8.07-1.68-12.01-1.99-7.29-6.28-12.73-12.96-16.2-1.7-.88-3.67-1.66-5.54-1.72-7.68-.27-15.4-.6-23,.81-2.91.54-5.8,1.58-8.51,2.81-2.29,1.04-2.41,2.27-1.16,4.41,3.07,5.28,7.54,8.16,13.77,7.87,2.58-.12,5.15-.43,7.72-.65,2.7-.23,5.35-.76,8.12-.19,6.9,1.42,10.81,6.92,9.62,13.87-.55,3.22-1.75,4.71-5.01,4.95-4.44.33-8.92.3-13.38.23-4.25-.07-8.5-.49-12.75-.58-2.25-.05-4.44.58-6.37,1.83-3.31,2.13-3.02,6.35.29,7.95,2.01.97,4.05,1.46,6.24,1.59,4.22.24,8.34-.48,12.51-.96,6.39-.74,12.54.06,18.06,3.79,2.47,1.67,3.79,3.77,3.49,6.86-.22,2.25-.71,3.08-2.94,3.76-3.86,1.17-7.82,1.48-11.82,1.07-6.89-.7-13.8-.93-20.73-.68-2.03.07-4.04.52-5.74,1.75-2.32,1.68-2.22,4.43.33,5.73,1.34.68,2.87,1.15,4.37,1.34,8.19,1.09,16.42,1.51,24.67,1.29,2.51-.07,5.02-.34,7.53-.38,1.84-.03,2.3.43,2.75,2.22.15.61.13,1.26.31,1.85.89,2.78,1.62,5.64,2.8,8.29.77,1.72,2.32,3.21,4.47,2.87,2.18-.34,3.05-2.24,3.26-4.16.27-2.55.16-5.15.21-7.72.03-1.88-.02-3.76.1-5.64.29-4.6.75-9.18.97-13.78.15-3.07.03-6.15.03-9.23Z"/>
      <path class="cls-1" d="M191.27,513.26c-1.27-.88-2.05-1.57-2.95-2.01-4.25-2.09-8.03-4.81-11.37-8.16-.79-.79-1.6-1.57-2.32-2.42-2.24-2.6-3.53-5.39-3.48-9.08.19-14.55.08-29.11,0-43.66-.04-7.83-.12-15.67-.38-23.49-.1-2.97.07-5.85.85-8.71.66-2.43,1.92-4.51,3.88-6.1,2.5-2.03,4.89-4.26,7.65-5.86,2.49-1.45,5.34-2.43,8.15-3.16,3.02-.78,6.17-1.1,9.28-1.48,2.91-.35,5.83-.62,8.76-.74,4.87-.2,9.38-1.27,13.28-4.41,1.5-1.21,2.78-2.53,3.61-4.28,2.76-5.87,3.33-12.02,2.7-18.41-.22-2.19.19-4.44.31-6.66.1-2.02.21-4.05.3-6.07.15-3.7.48-7.41.37-11.11-.2-6.34.12-12.73-1.38-18.98-.49-2.04-.16-4.05.55-5.97.9-2.41,2.41-3.22,4.9-2.76.55.1,1.1.2,1.64.36,4.14,1.24,5.45,3.01,5.44,7.3-.03,8.61.06,17.21-.14,25.82-.11,4.95-.84,9.88-1,14.83-.14,4.67-.05,9.35.24,14.01.17,2.76,1.58,5.2,3.17,7.45,1.16,1.63,2.63,2.89,4.61,3.46,2.55.74,5.1,1.48,7.63,2.27,1.73.54,3-.03,3.97-1.47.23-.35.53-.69.64-1.08,1.35-4.74,3.34-9.38,2.37-14.51-.13-.68-.21-1.39-.21-2.08-.16-17.84-.31-35.67-.44-53.51-.02-2.42.67-4.71,1.87-6.8,1.91-3.33,5.3-3.38,7.6-.32,1.85,2.47,2.76,5.21,2.71,8.21-.13,7.55-.42,15.09-.62,22.64-.06,2.31-.03,4.61-.03,6.92,0,3.63,0,7.26,0,10.89,0,.14-.02.28-.03.42-.17,6.43-.41,12.86-.49,19.29-.06,4.79,1.64,9.04,4.65,12.74.39.48,1.12.88,1.72.94,5.15.47,10.29,1.03,15.45,1.22,7.4.27,13.95,2.63,19.69,7.26,2.07,1.67,3.82,3.52,3.41,6.52-.05.39.07.85.24,1.22,1.76,3.66,1.71,7.63,1.74,11.52.04,6.5-.27,13-.3,19.5-.05,12.1,0,24.21.01,36.31,0,1.04.11,2.09.23,3.13.36,3.02.2,6.01-.53,8.95-.23.94-.58,1.88-1.06,2.72-.81,1.43-2.05,1.98-3.54,1.35-1.72-.72-3.49-1.55-4.89-2.74-.9-.77-1.45-2.23-1.64-3.46-.35-2.27-.35-4.59-.45-6.9-.09-2.2-.35-2.49-2.61-2.59-4.28-.17-8.52.22-12.7,1.17-6.2,1.41-12.42,2.73-18.57,4.34-4.93,1.29-9.79,2.86-14.62,4.5-3.72,1.27-5.63,4.39-7.11,7.8-.05.13-.07.27-.08.41-.22,2.49,3.51,7.51,6.01,7.8,2.28.26,4.6.22,6.9.23,1.4,0,2.79-.18,4.19-.21,9.09-.18,18.18-.31,27.27-.52,10.06-.24,20.13-.41,30.19-.88,5.85-.28,11.7-.93,17.51-1.75,3.89-.55,7.7-.17,11.48.36,6.59.92,13.18,1.41,19.83,1.51,13.07.2,26.14.56,39.21.91,7.2.19,14.39.42,21.59.75,2.1.1,3.6-.65,4.94-2.17,3.73-4.27,3.79-6.16.46-10.65-1.54-2.08-3.46-3.28-5.94-3.98-5.38-1.52-10.63-3.53-16.05-4.85-7.25-1.78-14.59-3.2-21.94-4.55-2.37-.43-4.88-.15-7.33-.18-1-.01-1.59.48-1.66,1.49-.12,1.95-.25,3.9-.31,5.86-.12,4.13-2.3,7.01-6.26,8.18-2.51.74-3.98.16-4.76-2.29-.98-3.07-1.51-6.24-1.1-9.5.12-.97.28-1.94.27-2.91,0-15.18,0-30.37-.07-45.55-.02-5.45-.24-10.91-.29-16.36,0-1.08.27-2.21.61-3.25.66-2.06,1.53-4.02,1.5-6.28-.02-1.71,1.12-2.99,2.33-4.08,5.74-5.15,12.49-7.75,20.2-8.12,5.3-.25,10.59-.76,15.87-1.24.66-.06,1.45-.53,1.87-1.05,3.09-3.83,4.7-8.19,4.6-13.17-.32-17.06-.62-34.12-.89-51.19-.06-3.57,0-7.14,0-10.7,0-3.15,1.87-5.39,3.93-7.36,1.67-1.61,4.04-1.07,5.47.89,2.02,2.77,2.73,5.97,2.71,9.31-.04,6.71-.23,13.43-.32,20.14-.13,9.93-.2,19.87-.34,29.8-.02,1.74-.19,3.49-.33,5.23-.18,2.25-.14,4.45.59,6.63.46,1.39.68,2.85,1.07,4.27.22.8.47,1.62.86,2.35,1.48,2.79,2.35,3.19,5.39,2.36,2.36-.64,4.68-1.41,7.02-2.13,1.81-.56,3.22-1.67,4.31-3.19,2.97-4.13,4.34-8.7,3.91-13.81-.29-3.41-.23-6.86-.66-10.25-1.19-9.48-.71-19-.79-28.5-.03-3.36-.05-6.72-.03-10.07.03-4.53,4.01-8.02,8.49-7.47,2.09.26,3.16,1.6,3.73,3.49.76,2.56.4,5.11-.02,7.68-.37,2.26-.72,4.56-.75,6.85-.08,7.06-.08,14.11.04,21.17.07,3.76.52,7.52.65,11.29.07,1.94-.36,3.89-.29,5.83.12,3.92.62,7.79,1.96,11.52,1.98,5.52,8.35,10.26,14.2,10.56,7.47.38,14.89,1.22,22.22,2.77,3.38.71,6.56,1.86,9.23,4.22,1.57,1.39,3.26,2.64,4.99,3.83,4.24,2.9,5.59,7.15,5.7,11.98.04,1.75,0,3.5,0,5.25-.02,7.42-.02,14.83-.07,22.25-.09,15.11-.22,30.22-.29,45.33,0,1.46-.36,2.7-1.1,3.95-3.19,5.32-7.95,8.93-13.09,12.13-1.07.66-2.26,1.13-3.29,1.84-.7.48-1.22,1.21-1.81,1.83.65.58,1.25,1.25,1.96,1.73,2.02,1.36,4.21,2.51,6.13,4,3.2,2.49,6.24,5.17,8.3,8.79.79,1.39,1.22,2.73,1.21,4.34-.03,15.18-.03,30.37.03,45.55.03,7.83.25,15.66.31,23.5.02,2.29-.08,4.6-.39,6.86-.47,3.47-2.18,6.32-4.96,8.48-3.47,2.69-6.63,5.95-10.95,7.24-3.66,1.1-7.42,1.99-11.19,2.5-5.11.7-10.29.9-15.43,1.42-6.5.66-12.56,5.71-14.06,12.09-.9,3.85-1.24,7.84-1.7,11.78-.11.91.32,1.88.48,2.83.06.39.11.79.06,1.18-.17,1.22-.55,2.44-.55,3.66,0,6.01-.18,12-.7,18.01-.33,3.86.2,7.81.48,11.71.28,3.83.84,7.63,1.03,11.46.06,1.31-.41,2.78-1.03,3.97-.84,1.61-2.33,2.37-4.24,1.88-.27-.07-.56-.07-.82-.15-5.03-1.5-6.21-2.63-6.21-7.71.02-10.91-.04-21.83.11-32.74.04-3.27.84-6.52.96-9.79.14-3.89.08-7.81-.2-11.7-.12-1.61-.99-3.19-1.6-4.74-1.52-3.83-4.2-6.35-8.28-7.33-2.04-.49-4.06-1.06-6.06-1.69-1.23-.39-2.28-.18-2.98.85-.81,1.19-1.47,2.48-2.14,3.75-.19.35-.1.84-.26,1.22-2.51,6.24-1.1,12.68-.97,19.05.1,5.11.1,10.21.12,15.32.04,10.64.04,21.27.1,31.91.01,2.28-.31,4.46-1.27,6.53-.35.75-.76,1.51-1.3,2.14-1.81,2.09-4.1,2.17-6.01.17-2.08-2.19-3.4-4.72-3.37-7.88.1-9.51.1-19.03.19-28.55.05-5.73.18-11.47.31-17.2.12-5.52.33-11.04.4-16.57.06-4.55-1.84-8.42-4.58-11.89-.49-.63-1.51-1.08-2.33-1.17-3.89-.39-7.79-.7-11.69-.88-5.47-.25-10.88-.67-15.94-3.07-3.19-1.51-6.16-3.32-8.57-5.92-1.26-1.36-2.3-2.77-1.88-4.86.15-.75-.16-1.68-.5-2.42-1.18-2.55-1.44-5.26-1.43-7.99.04-8.32.21-16.64.25-24.97.05-11.68.12-23.37-.04-35.05-.05-3.21-.54-6.41.15-9.59.23-1.09.47-2.2.9-3.22.83-1.92,2.31-2.65,4.28-1.91,3.35,1.25,6.2,3.07,6.4,7.17.1,2.09.16,4.19.21,6.28.06,2.05.24,2.27,2.3,2.37,4.86.24,9.6-.49,14.33-1.51,9.64-2.07,19.21-4.4,28.53-7.66.33-.12.67-.26,1.01-.28,4.48-.32,6.84-3.38,8.87-6.86.28-.48.54-1,.65-1.53.54-2.52-2.81-7.69-5.35-8.23-.88-.19-1.8-.26-2.7-.25-10.98.13-21.96.22-32.94.45-8.53.18-17.05.42-25.57.84-7.39.37-14.78.56-22.12,1.81-5.16.88-10.45.28-15.64-.7-2.12-.4-4.29-.59-6.45-.71-4.19-.22-8.38-.37-12.57-.47-14.61-.34-29.22-.64-43.83-.96-4.26-.09-8.53-.15-12.79-.29-2.7-.09-4.76.82-6.02,3.3-.38.75-.85,1.45-1.25,2.19-.9,1.68-.83,3.26.24,4.93,2.11,3.31,4.73,5.63,8.75,6.6,5.22,1.26,10.25,3.32,15.47,4.59,7.26,1.76,14.6,3.2,21.94,4.56,2.24.42,4.6.12,6.91.17,1.34.02,1.81-.64,1.83-1.95.04-2.51.11-5.03.36-7.53.31-3.14,4.61-6.67,7.73-6.51,1.64.08,2.88,1.03,3.24,3.04.46,2.6.85,5.26.84,7.9,0,7.83-.25,15.67-.32,23.5-.06,6.3-.05,12.59,0,18.89.07,7.48.3,14.96.31,22.44,0,1.93-.41,3.88-.88,5.77-.44,1.75-1.12,3.37-1.13,5.27,0,1.09-.86,2.36-1.65,3.25-3.72,4.17-8.58,6.52-13.88,7.8-3.36.81-6.89.97-10.36,1.3-3.89.37-7.79.61-11.69.87-1.6.11-2.66.88-3.59,2.18-2.54,3.54-3.8,7.47-3.73,11.79.18,10.28.5,20.55.64,30.83.14,10.7.18,21.41.15,32.11,0,3.01-1.94,5.22-4,7.09-1.58,1.43-3.95.78-5.49-1.18-1.57-2-2.31-4.37-2.31-6.84.01-9.93.15-19.87.24-29.8.03-3.71.05-7.42.12-11.12.12-6.29.33-12.58.4-18.86.02-1.37-.31-2.75-.59-4.11-.28-1.37-.69-2.7-1.05-4.05-.18-.68-.3-1.37-.52-2.03-1.15-3.38-2.55-4.25-5.98-3.33-2.76.74-5.46,1.72-8.11,2.8-1.05.43-2.1,1.23-2.77,2.14-2.59,3.49-4.39,7.4-4.32,11.81.07,4.67.53,9.34.83,14.01.24,3.69.69,7.39.69,11.08.01,8.95-.14,17.9-.3,26.85-.07,3.81-1.4,5.35-5.27,6.51-3.88,1.17-6.44-.43-6.92-4.48-.18-1.51-.02-3.07.09-4.6.48-6.26,1.07-12.51,1.47-18.78.12-1.93-.31-3.9-.38-5.85-.17-4.54-.24-9.08-.42-13.62-.04-.95-.32-1.9-.49-2.85-.06-.33-.22-.7-.14-1,1.57-6.03.36-11.84-1.89-17.35-2.43-5.97-7.59-8.83-13.71-9.71-5.66-.82-11.4-1.04-17.08-1.75-2.82-.35-5.6-1.09-8.36-1.83-4.34-1.16-7.34-4.49-10.91-6.91-4.75-3.21-6.2-8.05-6.18-13.31.04-19.87.27-39.73.46-59.6.04-4.47.18-8.95.37-13.42.04-.93.36-1.93.82-2.74,3.22-5.64,8.17-9.46,13.64-12.71,1.04-.62,2.05-1.29,3.49-2.2ZM473.28,568.3s0,.02,0,.02c8.18,0,16.36.02,24.54-.01,3.53-.02,6.94-.71,10.19-2.11,2.69-1.16,4.53-3.08,4.86-6.07.25-2.28.32-4.59.36-6.89.04-2.12-.41-2.59-2.51-2.76-4.04-.31-8.08-.51-12.12-.86-3.27-.28-6.56-.49-9.77-1.11-4.24-.82-8.38-2.15-12.61-3.03-6.01-1.26-12.16-1.93-18.05-3.56-5.69-1.58-11.35-2.06-17.18-1.94-3.81.07-7.51.54-11.1,1.82-9.67,3.43-19.44,6.53-29.43,8.94-3.17.76-6.2,2.11-9.27,3.25-2.66.99-4.09,2.8-3.67,5.79.09.62.01,1.26.01,1.89,0,3.45.14,3.62,3.63,4.33.41.08.82.18,1.24.21,7.25.43,14.5.99,21.76,1.24,11.73.4,23.47.65,35.21.84,7.97.12,15.94.02,23.91.02ZM445.18,485.13c3.67-.38,7.37-.62,11.02-1.16,3.85-.58,7.68-1.37,11.49-2.19,5.66-1.22,11.37-2.31,16.94-3.89,6.25-1.78,12.63-2.2,19.03-2.72,2.99-.24,5.99-.45,8.98-.69,1.36-.11,1.94-.92,1.91-2.26-.04-1.47.06-2.94-.06-4.4-.25-3.29-1.3-6.29-4.5-7.76-2-.92-4.21-1.65-6.38-1.85-4.31-.39-8.65-.43-12.98-.5-16.36-.23-32.71-.01-49.07.67-8.03.34-16.08.3-24.11.55-7.12.22-14.24.55-21.36.93-1.58.08-3.16.5-4.71.88-.88.21-1.39.85-1.33,1.87.08,1.33.09,2.65.13,3.98.06,2.13,1.12,3.61,3.06,4.34,3.2,1.2,6.39,2.48,9.67,3.39,8.55,2.36,17.16,4.48,25.46,7.68,5.4,2.08,10.96,3.36,16.84,3.15ZM213.9,458.1c0-.15,0-.29,0-.44-6.57.14-13.15.16-19.71.5-2.47.13-4.97.81-7.32,1.63-3.12,1.09-4.8,3.53-5.01,6.85-.12,1.95-.02,3.92-.07,5.87-.03,1.24.58,1.75,1.76,1.84,3.41.25,6.82.57,10.23.81,5.92.41,11.76.96,17.57,2.49,7.95,2.09,16.14,3.26,24.15,5.18,5.75,1.38,11.47,2.28,17.4,2.06,3.45-.13,6.85-.44,10.1-1.57,10.36-3.61,20.83-6.84,31.47-9.56,2.96-.76,5.78-2.06,8.65-3.16,1.69-.65,2.48-1.93,2.41-3.77-.03-.98.03-1.96.11-2.93.22-2.39,0-2.72-2.33-3.32-.61-.16-1.23-.32-1.85-.36-9.83-.56-19.67-1.25-29.51-1.61-9.29-.34-18.6-.41-27.89-.48-10.06-.08-20.13-.02-30.19-.02ZM227.33,567.89c0,.07,0,.15,0,.22,3.49-.19,6.97-.46,10.46-.55,8.39-.2,16.78-.32,25.17-.44,3.71-.06,7.42.05,11.12-.1,7.96-.33,15.91-.77,23.86-1.19,1.88-.1,3.77-.22,5.64-.44,1.03-.12,2.05-.43,3.04-.74,1-.31,1.42-1,1.26-2.09-.16-1.17-.28-2.37-.23-3.55.09-2.02-.77-3.39-2.63-4.06-3.48-1.26-6.91-2.68-10.47-3.63-7.77-2.07-15.53-4.11-23.06-6.97-2.28-.87-4.63-1.57-6.97-2.28-5.17-1.57-10.51-1.35-15.81-1.25-1.87.04-3.75.34-5.59.7-5.54,1.1-11.06,2.28-16.59,3.44-3.89.82-7.79,1.63-11.68,2.47-3.54.77-7.05,1.72-10.61,2.32-2.67.45-5.42.48-8.14.69-3.55.28-7.1.56-10.65.82-1.37.1-2.01.8-1.97,2.18.04,1.19-.03,2.38.06,3.57.5,6.45,3.31,9.39,9.62,10.05,2.22.23,4.46.41,6.69.45,9.16.16,18.32.26,27.47.38ZM486.4,616.99c3.88-.41,7.79-.69,11.65-1.28,1.82-.28,3.81-.78,5.27-1.82,3.96-2.81,6.76-6.65,8.34-11.28.85-2.5.45-3-2.13-3.05-7.06-.13-14.12-.26-21.19-.4-.91-.02-1.82-.08-2.72-.13-6.48-.38-12.97-.78-19.45-1.14-1.74-.1-3.5-.07-5.24-.15-7.61-.36-15.21-.73-22.82-1.1-1.53-.08-3.07-.21-4.6-.27-4.37-.15-8.62-1.3-13.12-.68-4.61.64-9.35.31-14.03.54-2.85.14-5.71.47-8.54.85-4.6.63-8.49,2.72-11.67,6.09-1.5,1.58-1.48,2.51-.18,4.24,2,2.65,4.6,4.17,7.9,4.65,2.41.35,4.98.56,7.1,1.61,2.33,1.15,4.68,1.73,7.17,2.06,1.24.17,2.51.21,3.74.46,1.77.36,3.51,1.25,5.26,1.24,6.5-.05,12.99-.29,19.48-.63,3.13-.16,6.21-.94,9.35.09,1.23.4,2.6.62,3.9.56,3.77-.17,7.53-.45,11.29-.8,4.03-.38,8.04-.92,12.06-1.33.95-.1,2.03-.25,2.86.09,3.34,1.39,6.83,1.33,10.35,1.59ZM198.41,599.17c0,.09,0,.19,0,.28-.49,0-.98,0-1.47,0-3.43.04-6.86.03-10.28.15-2.64.09-3.13.82-2.22,3.29,1.17,3.19,3.1,5.93,5.28,8.52,1.88,2.23,4.29,3.38,7.12,4.08,5.44,1.34,10.95,1.3,16.47,1.14,1.92-.06,3.87-.5,5.73-1.03,1.53-.43,2.98-.68,4.52-.23.67.2,1.35.38,2.04.44,6.47.57,12.94,1.14,19.41,1.65,1.81.14,3.59.03,5.35-.67,1.05-.42,2.33-.41,3.5-.36,8.03.33,16.05.73,24.08,1.07.75.03,1.51-.17,2.26-.32,2.25-.45,4.49-.93,6.74-1.39,2.11-.43,4.4-.48,6.28-1.39,2.13-1.03,4.25-1.68,6.55-1.99,3.71-.5,7.29-1.16,9.8-4.47,1.76-2.32,1.88-3.11-.16-5.18-4-4.06-9.02-5.72-14.54-6.12-4.25-.3-8.51-.59-12.76-.72-4.74-.14-9.48-.13-14.22-.12-1.11,0-2.21.33-3.32.4-4.81.3-9.62.6-14.43.81-7.89.33-15.78.58-23.68.88-1.19.04-2.37.15-3.56.22-5.65.35-11.29.75-16.94,1.03-2.51.13-5.03.02-7.55.02ZM193.29,426.09c0,.08,0,.17,0,.25,3.21,0,6.43-.12,9.64.03,4.74.22,9.47.68,14.21.95,4.11.24,8.24.34,12.35.52,7.96.37,15.91.69,23.86,1.15,4.94.28,9.87.79,14.81,1.17.97.08,1.96.09,2.93.04,4.53-.24,9.06-.49,13.58-.78,3.83-.25,7.67-.4,11.48-.88,4.62-.58,8.39-2.94,11.59-6.25.71-.73,1.57-1.58.8-2.75-1.56-2.36-3.28-4.57-6.26-5.23-1.22-.27-2.47-.46-3.69-.76-2.22-.54-4.57-.83-6.6-1.8-1.68-.81-3.3-1.37-5.13-1.55-2.29-.22-4.69-.23-6.81-.98-2.87-1.01-5.72-1.22-8.66-1.08-2.79.13-5.56.51-8.35.57-5.24.12-10.48.11-15.71.1-2.51,0-5.03-.32-7.52-.15-5.99.42-11.96.99-17.93,1.6-2.12.22-4.16.32-6.13-.68-.35-.18-.82-.16-1.23-.2-6.51-.63-12.95-.19-19.39.88-3.1.51-5.53,1.91-7.36,4.35-1.51,2.01-2.86,4.13-4.22,6.25-.49.76-.86,1.61-1.14,2.47-.52,1.59-.02,2.36,1.66,2.66.61.11,1.25.1,1.88.1,2.45.01,4.89,0,7.34,0ZM502.24,425.75c0,.1.01.19.02.29,3.01,0,6.02.11,9.02-.03,2.41-.11,2.95-1.11,2-3.33-1.5-3.5-3.52-6.67-6.24-9.37-1.38-1.37-2.95-2.41-4.87-2.69-3.59-.51-7.19-.88-10.79-1.33-4.42-.56-8.76-.32-13.06.94-1.22.36-2.61.22-3.92.16-.97-.05-1.91-.47-2.88-.52-8.07-.41-16.07-1.55-24.23-1.02-6.8.44-13.67-.33-20.52-.56-3.07-.1-6.22-.7-9.15.44-2.61,1.01-5.29,1.25-7.99,1.48-2.05.17-3.99.5-5.74,1.71-.67.46-1.52.72-2.32.9-1.5.34-3.01.63-4.53.8-3.88.44-7.08,1.95-9.29,5.32-.63.97-.74,1.73.01,2.63,2.71,3.27,5.97,5.84,10.21,6.53,4.26.69,8.59.98,12.9,1.3,3.34.25,6.7.27,10.05.39,2.98.1,5.96.84,8.96.06.81-.21,1.65-.34,2.48-.38,8.86-.45,17.72-.9,26.59-1.3,4.68-.21,9.36-.29,14.04-.47,2.65-.1,5.3-.28,7.95-.46,7.1-.48,14.21-.99,21.31-1.49ZM182.78,580.81c-.14.01-.27.02-.41.03.5,1.94.77,3.98,1.54,5.81,1.86,4.45,5.16,6.34,9.97,5.99,1.25-.09,2.5-.28,3.76-.32,6.64-.18,13.27-.31,19.91-.5,4.12-.12,8.24-.24,12.36-.48,8.02-.48,16.03-1.04,24.04-1.56,6.83-.45,13.66-.9,20.48-1.35,8.15-.54,16.3-1.1,24.45-1.63,2.58-.17,5.16-.28,7.74-.44.41-.02.85-.06,1.23-.21,4.03-1.64,5.07-7.56,1.83-10.41-.57-.5-1.22-.94-1.87-1.34-3.44-2.11-7.25-2.87-11.22-2.91-9.64-.08-19.27.18-28.88,1.16-4.85.5-9.77.42-14.66.44-17.34.06-34.68.03-52.01.08-2.58,0-5.19.1-7.73.47-2.47.36-4.94.93-7.28,1.77-2.36.84-3.87,2.55-3.24,5.41ZM500.07,592.28s0,.01,0,.02c1.19,0,2.39-.11,3.56.02,3.57.4,5.85-1.52,7.58-4.24,1.37-2.15,2.04-4.58,2.04-7.17,0-3.13-.77-4.61-3.72-5.57-2.57-.84-5.27-1.52-7.95-1.7-5.57-.38-11.17-.49-16.76-.54-18.74-.17-37.48-.26-56.22-.39-1.05,0-2.09-.1-3.14-.17-3.48-.22-6.97-.47-10.45-.66-2.79-.15-5.59-.31-8.38-.3-3.63.01-7.27,0-10.88.35-3.28.32-6.42,1.37-9.06,3.53-2.16,1.76-2.76,3.47-1.9,6.12.32.98.87,1.9,1.42,2.79.66,1.07,1.63,1.6,2.96,1.67,3.63.19,7.25.51,10.87.75,7.04.47,14.08.88,21.12,1.38,8.57.62,17.13,1.38,25.7,1.96,7.74.52,15.48.96,23.23,1.26,9.99.39,19.98.61,29.98.9ZM467.23,452.47s0,.04,0,.06c11.32-.15,22.65-.22,33.97-.51,3.04-.08,6.1-.72,9.09-1.36,2.7-.58,4.5-2.64,4.66-4.77.24-3.27-.65-6.24-2.47-8.92-1.25-1.84-2.82-3.3-5.26-3.36-1.04-.03-2.09-.25-3.13-.23-6.36.12-12.72.27-19.07.45-3.42.1-6.84.25-10.26.44-6.34.36-12.69.77-19.03,1.15-7.46.45-14.92.85-22.37,1.35-6.76.46-13.5,1.08-20.26,1.55-7.04.49-14.08.89-21.12,1.3-2.51.15-3.92,1.7-4.83,3.78-.91,2.1-.79,4.25,1.01,5.78,1.52,1.28,3.26,2.41,5.08,3.19,2.44,1.05,5.06,1.48,7.77,1.42,7.05-.17,14.13.03,21.16-.43,9.28-.61,18.55-.99,27.85-.9,5.73.05,11.47.01,17.2.01ZM196.18,433.68s0,.03,0,.04c-1.96,0-3.92.05-5.87-.01-3.2-.11-5.57,1.26-7.01,4.05-.76,1.47-1.44,3.06-1.77,4.67-.98,4.79.81,7.51,5.67,8.37,3.63.65,7.33,1.15,11.01,1.23,8.11.19,16.22.04,24.33.09,15.65.1,31.31-.2,46.95.77,8.02.5,16.06.58,24.08.89,3.28.13,6.43-.52,9.4-1.78,1.69-.72,3.25-1.86,4.68-3.05,1.84-1.52,1.71-3.75.89-5.6-.82-1.87-2.14-3.63-4.64-3.7-3.21-.1-6.42-.24-9.63-.43-7.11-.43-14.22-.86-21.32-1.36-8.91-.63-17.82-1.38-26.74-1.98-7.32-.49-14.64-.92-21.96-1.24-9.35-.4-18.71-.65-28.07-.97ZM188.87,543.6c.91-.06,2.03-.11,3.14-.22,5.14-.49,10.28-.94,15.41-1.51,1.5-.17,2.99-.56,4.42-1.05,3.49-1.22,6.87-2.8,10.41-3.79,5.3-1.48,10.7-2.62,16.07-3.81,1.04-.23,1.75-.66,2.39-1.48,1.78-2.31,3.02-4.83,3.54-7.73.64-3.53-2.83-7.9-6.41-7.87-10.77.09-21.53.16-32.29.37-2.56.05-5.17.36-7.67.93-3.32.76-6.76,1.46-9.48,3.71-2.63,2.18-5.12,4.55-7.6,6.91-.63.6-1.21,1.44-1.41,2.26-.92,3.75-.56,7.49.41,11.19.29,1.09,1.06,1.57,2.16,1.63,2.23.13,4.46.3,6.9.47ZM476.61,508.79s0-.03,0-.04c5.03,0,10.06.11,15.09-.05,2.63-.08,5.31-.39,7.85-1.04,3.84-.98,7.79-1.88,10.85-4.68,2.11-1.93,4.17-3.93,6.17-5.98.66-.68,1.37-1.57,1.52-2.45.6-3.54.47-7.1-.76-10.52-.17-.46-.93-.98-1.44-1.01-3.6-.17-7.17-1.04-10.83-.26-2.58.55-5.25.72-7.89.93-4.71.36-9.51.15-13.79,2.72-.41.25-.9.37-1.37.51-6.94,2.09-13.8,4.49-20.99,5.69-1.22.2-2.58.87-3.44,1.76-2.04,2.11-3.13,4.78-3.33,7.73-.23,3.47,2.78,6.67,6.19,6.67,5.38,0,10.76,0,16.14,0ZM219.48,508.74s0,.02,0,.04c5.52,0,11.04-.02,16.56.02,1.2,0,2.07-.38,2.98-1.18,2.75-2.4,3.28-5.22,2-8.51-.38-.97-.84-1.92-1.24-2.88-.96-2.28-2.7-3.26-5.12-3.71-8.6-1.59-16.96-4.02-25.07-7.33-1.45-.59-3.08-.86-4.65-1.03-3.26-.35-6.54-.49-9.81-.8-4.58-.44-9.13-1.21-13.77-.57-2.13.3-2.37.29-2.94,2.29-1.53,5.41-1.69,10.49,3.41,14.36,1.1.84,1.98,1.97,3.02,2.9.88.79,1.75,1.71,2.8,2.17,5.07,2.22,10.28,4.08,15.89,4.2,5.31.12,10.62.02,15.93.02ZM474.52,516.79c0,.14,0,.29,0,.43-5.59,0-11.18-.01-16.77.02-.6,0-1.3.1-1.77.42-2.74,1.89-3.69,4.43-2.75,7.68.42,1.46,1.11,2.85,1.79,4.22.83,1.69,2.24,2.47,4.13,2.81,8.12,1.49,16.08,3.69,23.75,6.73,3.41,1.36,6.81,1.86,10.38,2.04,2.92.15,5.83.55,8.76.75,2.91.2,5.87.61,8.75.36,4.7-.41,4.05.27,5.14-4.37.96-4.07.54-7.73-3.04-10.57-1.58-1.25-2.9-2.83-4.37-4.22-.61-.57-1.25-1.17-1.99-1.52-4.7-2.23-9.59-3.96-14.81-4.28-5.72-.35-11.45-.36-17.18-.52Z"/>
      <path class="cls-1" d="M542.39,284.59c-4.96.16-9.93.19-14.88.54-3.26.23-6.48,1.03-9.74,1.36-6.04.61-12.09,1.15-18.15,1.53-4.81.3-9.65.24-14.47.48-1.94.1-3.86.6-5.8.84-3.46.43-6.93.81-10.4,1.21-3.06.35-5.26,2.21-5.64,5.27-.32,2.55-.17,5.16-.27,7.74-.04,1.04-.06,2.12-.34,3.1-.96,3.43-4.85,5.55-8.28,4.56-3.4-.98-5.8-3.01-6.61-6.6-.43-1.91-.83-3.82-1.33-5.72-.88-3.39-3.54-5.59-7.03-5.39-5.85.34-11.73.67-17.52,1.48-7.12.99-14.15,2.58-21.25,3.7-4.48.7-9.01,1.14-13.53,1.44-2.04.13-3.53.74-4.45,2.54-.54,1.05-1.16,2.12-1.4,3.26-.62,2.87-2.27,5.11-4.19,7.15-2.68,2.85-7.59,2.38-9.57-1-1.11-1.89-2.17-4.03-2.44-6.16-1.02-8.17-2.62-16.29-2.47-24.57.02-1.04.06-2.13.38-3.1,1.38-4.18,2.75-8.37,4.36-12.46,1-2.52,3-4.37,5.23-5.89,4.1-2.79,8.19-5.6,12.35-8.31,3.47-2.26,7.34-3.46,11.48-3.52,5.66-.07,11.33,0,16.99,0,1.99,0,3.97.03,4.96-2.25,1.12-2.58,1.54-5.14-.38-7.51-2.2-2.72-4.36-5.49-6.75-8.03-6.94-7.39-13.89-14.78-21.02-21.99-7.48-7.55-15.13-14.94-22.8-22.29-3.44-3.29-7.24-6.13-11.45-8.45-2.18-1.2-4.1-2.9-6.04-4.49-1.9-1.56-2.03-1.53-3.86-.08-2.41,1.9-4.86,3.77-7.45,5.41-3.97,2.52-7.79,5.21-11.14,8.52-11.84,11.71-23.78,23.31-35.45,35.18-4.84,4.93-9.07,10.45-13.58,15.7-1.79,2.09-2.31,4.37-1.26,7.01,1.02,2.57,1.7,3.21,4.48,3.24,4.34.04,8.67-.08,13.01-.01,2.72.04,5.44.17,8.15.46,3.55.38,6.68,1.9,9.58,3.96,3.07,2.19,6.16,4.36,9.36,6.37,4.14,2.6,7.1,6.03,8.43,10.81.41,1.48.87,2.96,1.48,4.37,2.01,4.68,1.94,9.51,1.34,14.43-.64,5.27-1.24,10.54-1.8,15.82-.28,2.69-1.12,5.19-2.47,7.51-2.09,3.58-6.97,4.22-9.83,1.27-1.97-2.03-3.5-4.33-4.21-7.15-.3-1.2-.83-2.38-1.45-3.46-.76-1.33-1.95-2.18-3.58-2.22-7.64-.21-15.13-1.63-22.6-3.09-8.03-1.57-16.08-2.87-24.26-3.27-2.02-.1-4.04-.32-6.07-.36-3.81-.08-6.52,2.08-7.37,5.76-.44,1.91-.85,3.82-1.34,5.72-.73,2.84-2.52,4.73-5.23,5.86-2.83,1.19-5.4.61-7.73-1.04-1.72-1.22-2.07-3.3-2.18-5.25-.14-2.37-.2-4.78.06-7.13.34-3.11-3.01-6.74-6.21-6.96-4.86-.34-9.67-1.35-14.53-1.86-3.33-.35-6.7-.45-10.05-.45-10.86-.03-21.6-1.11-32.3-2.9-2.67-.45-5.43-.43-8.16-.47-5.6-.08-11.2.05-16.79-.1-2.21-.06-4.43-.53-6.6-1.02-1.9-.43-2.29-1.02-2.38-2.93-.08-1.75-.08-3.5-.03-5.25.04-1.5.73-2.32,2.19-2.63.81-.17,1.67-.26,2.5-.24,8.11.2,16.21.4,24.32.66,7.61.25,15.23.43,22.83.93,3.68.24,7.3,1.17,10.97,1.69,3.25.46,6.51.8,9.77,1.16,3.82.42,7.63.83,11.46,1.19,3.54.33,7.1.59,10.64.9,2.57.23,5.14.51,7.71.75.76.07,1.54.11,2.3.1,2.18-.04,2.72-.64,3.19-2.8.88-4.02,1.68-8.08,2.89-12.01.97-3.17.06-5.65-1.92-7.91-.54-.62-1.5-1.08-2.33-1.23-3.91-.71-7.84-1.32-11.77-1.92-4.34-.67-8.68-1.42-13.05-1.9-3.04-.34-6.12-.3-9.18-.42-4.6-.18-9.21-.27-13.81-.54-3.97-.23-7.93-.75-11.9-.97-9.63-.54-19.24-1.15-28.76-2.78-2.99-.51-5.85.07-8.63,1.12-3.71,1.4-7.3.5-10.86-.52-.68-.2-1.42-1.01-1.69-1.71-1.24-3.24-.79-6.32,1.32-9.09.32-.41.87-.82,1.36-.9,3.03-.49,6.06-1.02,9.11-1.27,3.69-.3,7.4-.47,11.1-.41,1.99.03,3.97.65,5.94,1.03,1.77.34,3.52.81,5.3,1.04,2.77.36,5.55.61,8.34.83,3.83.31,7.68.38,11.49.84,8.18.97,16.33,2.14,24.5,3.19,2.08.27,4.17.47,6.26.53,6.5.2,13,.2,19.49.53,4.31.22,8.61.88,12.91,1.37,1.32.15,2.63.35,3.94.58,1.52.26,2.67-.12,3.65-1.42,4.33-5.76,8.7-11.48,13.11-17.18,4.49-5.82,9.28-11.36,14.7-16.37,8.48-7.84,16.21-16.42,23.97-24.97,6.48-7.14,12.14-15.03,19.31-21.55,4.45-4.04,8.87-8.12,13.39-12.09,3.85-3.38,7.98-3.52,11.72-.15,6.49,5.85,12.97,11.73,19.15,17.9,3.95,3.94,7.32,8.45,10.99,12.67,2.52,2.9,5.01,5.84,7.69,8.6,6.77,6.98,13.58,13.91,20.46,20.77,6.16,6.14,11.75,12.74,16.82,19.8,2.85,3.98,6,7.74,8.93,11.66,1.45,1.94,3.02,2.55,5.55,2.17,5.79-.88,11.65-1.33,17.49-1.87,3.48-.32,6.97-.48,10.45-.7.77-.05,1.56-.16,2.3-.04,6.57,1.05,12.92-.73,19.35-1.5,4.16-.5,8.31-1.09,12.47-1.48,8.41-.78,16.83-1.45,25.24-2.18.62-.05,1.28-.12,1.83-.38,4.15-1.96,8.56-1.88,12.97-1.65,3.35.18,6.69.44,10.03.76,1.66.16,3.32.42,4.93.82.6.15,1.18.73,1.59,1.25,2.11,2.66,2.16,5.67,1.28,8.76-.36,1.27-1.41,1.98-2.62,2.17-2.41.38-4.85.62-7.28.83-.6.05-1.29-.1-1.83-.36-4.12-1.99-8.37-1.64-12.73-1.08-6.51.83-13.05,1.39-19.58,1.99-6.26.58-12.52,1.18-18.79,1.55-4.6.27-9.21.13-13.82.3-3.48.13-6.97.3-10.43.75-6.43.83-12.84,1.88-19.26,2.84-.69.1-1.37.3-2.06.36-3.63.32-5.02,2.96-5.99,5.91-.24.72,0,1.66.19,2.45.9,3.66,1.88,7.31,2.78,10.97.22.88.22,1.8.42,2.69.37,1.72.98,2.31,2.73,2.28,2.3-.04,4.6-.25,6.9-.45,4.38-.37,8.76-.76,13.14-1.19,4.79-.47,9.59-.91,14.37-1.53,6.02-.78,12.01-1.76,18.03-2.56,2.21-.3,4.45-.43,6.69-.48,8.39-.21,16.78-.32,25.17-.56,5.38-.15,10.75-.44,16.13-.68,3.66-.16,4.94,1.04,4.92,4.78,0,1.19-.2,2.37-.22,3.55-.03,1.7-.97,2.6-2.51,2.87-2.26.39-4.53.75-6.82.98-1.52.15-3.08.05-4.61.05-1.26,0-2.52,0-3.78,0,0-.05,0-.09,0-.14ZM313.42,287.08c.23,0,.86,0,1.48,0,.7,0,1.4.03,2.1,0,1.72-.05,2.22-.51,2.31-2.25.04-.69-.05-1.4-.2-2.07-1.09-4.96-3.05-9.58-5.64-13.93-1.55-2.59-3.78-4.51-6.45-5.83-1.08-.54-2.37-.78-3.59-.91-2.91-.32-5.85-.38-8.75-.75-6.16-.8-12.3-1.73-18.45-2.61-3.1-.44-5.78.22-7.97,2.64-2.77,3.05-5.71,5.95-8.47,9.01-2.5,2.77-4.65,5.78-5.53,9.51-.39,1.65-.17,2.18,1.43,2.64,1.2.34,2.44.63,3.68.79,3.46.43,6.93.73,10.39,1.16,4.57.56,9.12,1.48,13.7,1.71,9.84.48,19.7.62,29.95.91ZM385.15,286.73c9.57-.29,19.14-.56,28.7-.88,1.53-.05,3.05-.36,4.57-.54,4.22-.51,8.45-.98,12.66-1.54,2.91-.38,5.81-.8,8.69-1.33,1.69-.31,2.15-1.08,1.56-2.73-.66-1.83-1.35-3.73-2.47-5.29-3.65-5.05-7.79-9.69-12.46-13.84-1.26-1.12-2.66-1.77-4.39-1.55-5.12.65-10.24,1.33-15.36,1.93-4.57.54-9.14,1.09-13.73,1.44-1.59.12-3.01.4-4.37,1.2-3.36,1.98-5.93,4.69-7.38,8.32-1.45,3.63-2.84,7.29-3.99,11.02-.86,2.77.05,3.75,2.93,3.78,1.68.02,3.36,0,5.03,0Z"/>
      <path class="cls-1" d="M156.65,741.36c1.26,0,2.52-.06,3.78.01,5.63.34,11.14-.51,16.67-1.38,3.51-.55,7.1-.63,10.61-1.16,8.54-1.3,17.18-.51,25.74-1.28,3.4-.3,6.78-.91,10.16-1.37,1.66-.23,3.32-.56,4.98-.63,4.21-.18,6.5-3.38,6.3-7.78-.11-2.43-.19-4.91.14-7.31.58-4.3,4.45-6.71,8.63-5.58,3.1.84,5.41,2.6,6.29,5.83.56,2.09,1.01,4.21,1.56,6.3.96,3.65,3.56,5.71,7.32,5.54,9.21-.42,18.39-1.22,27.45-3.07,8.42-1.72,16.86-3.33,25.48-3.63,1.28-.04,2.4-.48,3.07-1.53.77-1.22,1.59-2.52,1.93-3.9.74-3.06,2.42-5.48,4.57-7.64,2.61-2.61,7.42-2.25,9.27.97,1.26,2.19,2.17,4.72,2.62,7.22.83,4.52,1.23,9.13,1.77,13.7.28,2.36.68,4.72.68,7.08,0,2.35-.15,4.77-.74,7.03-.88,3.37-2.2,6.63-3.34,9.94-1.14,3.31-3.36,5.78-6.19,7.73-3.97,2.73-7.97,5.42-11.99,8.08-3.22,2.13-6.76,3.4-10.63,3.46-4.4.07-8.79-.09-13.19-.03-2.65.03-5.3.24-7.94.48-.52.05-1.16.49-1.46.94-2.08,3.13-1.97,6.37.54,9.21,5.92,6.71,11.84,13.42,17.94,19.96,5.2,5.58,10.57,11,16,16.35,5.77,5.7,11.59,11.37,17.62,16.79,2.83,2.55,6.19,4.52,9.35,6.71,1.72,1.19,3.53,2.26,5.25,3.46.69.48,1.26.79,2.07.24,3.81-2.58,7.7-5.06,11.44-7.74,2.26-1.63,4.44-3.43,6.42-5.39,12.27-12.16,24.54-24.32,36.65-36.64,4.11-4.18,7.75-8.82,11.61-13.25,2.36-2.71,2.87-5.65,1.15-8.9-.53-1-1.2-1.71-2.38-1.78-2.3-.15-4.59-.41-6.89-.43-4.2-.05-8.39-.02-12.59.07-5.23.12-9.64-1.9-13.73-4.94-2.3-1.7-4.73-3.22-7.11-4.81-1.11-.74-2.28-1.37-3.35-2.16-2.64-1.95-4.75-4.31-5.8-7.51-.96-2.92-1.94-5.84-3.04-8.71-1.29-3.39-1.12-6.88-.75-10.35.73-6.8,1.6-13.59,2.45-20.38.3-2.37,1.53-4.35,3.01-6.14,1.99-2.41,6.21-2.58,8.46-.43,2.11,2.02,3.63,4.42,4.53,7.21.28.86.54,1.74.9,2.57,1,2.31,2.57,3.43,5.31,3.58,4.94.27,9.86.96,14.76,1.72,7.86,1.21,15.68,2.78,23.55,3.89,4.55.64,9.18.8,13.79.98,3.62.14,6.26-2.02,7.17-5.52.56-2.16.96-4.38,1.63-6.5,1.62-5.13,7.08-7.28,11.81-4.83,1.89.98,2.8,2.54,2.97,4.51.24,2.78.35,5.58.39,8.37.06,4.29,1.94,6.44,6.14,6.98,4.71.61,9.39,1.37,14.1,1.92,2.63.31,5.3.42,7.95.46,6.36.08,12.71.02,19.04.93,5.94.86,11.9,1.53,17.86,2.26,1.11.14,2.23.23,3.34.24,6.58.02,13.15-.09,19.73.05,2.27.05,4.54.66,6.79,1.11,1.39.28,2.14,1.19,2.17,2.68.03,1.6.22,3.21.19,4.81-.03,2.25-1.93,3.71-3.96,3.64-11.25-.4-22.51-.56-33.75-.96-5.93-.21-11.85-.75-17.77-1.17-1.11-.08-2.25-.17-3.31-.48-4.95-1.46-10.09-1.37-15.14-1.97-8.45-1-16.94-1.71-25.42-2.52-1.95-.19-3.9-.33-5.85-.41-1.96-.08-2.61.45-3.07,2.37-1.05,4.34-2.11,8.68-3.1,13.03-.56,2.44-.04,4.72,1.39,6.78,1.26,1.81,3.26,2.09,5.17,2.39,7.31,1.13,14.62,2.28,21.96,3.19,3.45.43,6.96.37,10.44.48,3.63.11,7.26.05,10.88.27,4.46.27,8.9.8,13.36,1.14,6.34.47,12.69.78,19.02,1.32,3.05.26,6.09.82,9.11,1.35,3.53.62,6.97.44,10.32-.83,3.62-1.37,7.15-.75,10.67.36,1.14.36,1.87,1.16,2.18,2.35.76,2.93.42,5.72-1.28,8.22-.46.68-1.34,1.29-2.13,1.49-6.02,1.47-12.17,1.39-18.32,1.44-3.03.02-5.89-.39-8.82-1.34-2.8-.91-5.9-.94-8.88-1.22-6.26-.59-12.51-1.22-18.78-1.59-7.34-.44-14.54-1.86-21.78-2.97-1.24-.19-2.51-.14-3.77-.17-5.66-.13-11.33-.1-16.97-.41-4.88-.26-9.73-.88-14.59-1.38-2.36-.24-4.72-.52-7.07-.85-1.33-.19-2.09.54-2.8,1.46-4.22,5.49-8.53,10.91-12.64,16.48-4.8,6.5-10.33,12.3-16.1,17.93-5.66,5.51-11.24,11.11-16.57,16.94-6.51,7.12-12.67,14.55-19.07,21.77-2.36,2.66-4.99,5.09-7.52,7.6-1.74,1.72-3.53,3.4-5.32,5.06-1.91,1.78-3.62,3.69-4.68,6.12-.81,1.87-2.21,2.77-4.31,2.64-1.74-.11-3.5-.06-5.24-.03-1.57.02-2.78-.62-3.36-2.05-1.2-2.95-3.38-5.1-5.59-7.25-3.95-3.86-8.01-7.62-11.78-11.65-3.44-3.67-6.51-7.68-9.84-11.45-4.12-4.67-8.24-9.33-12.54-13.83-5.12-5.36-10.35-10.61-15.67-15.77-6.5-6.3-12.29-13.18-17.52-20.56-2.83-3.99-5.97-7.76-8.92-11.66-.88-1.16-1.88-1.76-3.38-1.58-3.19.38-6.39.69-9.58.99-4.17.4-8.33.9-12.51,1.1-5.44.26-10.91.06-16.34.44-4.86.34-9.69,1.22-14.54,1.81-4.64.57-9.28,1.13-13.93,1.58-6.26.59-12.52,1.16-18.79,1.55-3.04.19-5.94.71-8.76,1.86-.75.31-1.64.4-2.46.38-5.66-.11-11.32-.2-16.98-.46-1.78-.08-3.57-.58-5.31-1.08-1.74-.5-2.34-2.13-2.93-3.61-.84-2.12-.44-4.31.15-6.39.19-.68,1.01-1.41,1.71-1.7,3.17-1.3,6.6-1.92,9.83-.81,4.75,1.64,9.47,1.66,14.26.76,6.34-1.19,12.74-1.52,19.15-1.95,6.55-.44,13.08-1.16,19.63-1.54,4.53-.26,9.08-.05,13.61-.22,3.55-.13,7.12-.38,10.64-.85,6.23-.83,12.42-1.87,18.63-2.82.35-.05.69-.14,1.03-.17,3.72-.26,5.3-2.77,6.03-5.97.23-1.02-.02-2.21-.26-3.28-.93-4.15-1.96-8.28-2.9-12.43-.49-2.16-.82-2.59-3.1-2.52-2.93.08-5.85.31-8.78.51-3.69.26-7.38.51-11.07.84-2.64.24-5.27.6-7.9.9-3.4.38-6.81.7-10.2,1.13-2.97.38-5.92.95-8.89,1.31-4.02.48-8.05.95-12.09,1.21-4.53.29-9.08.38-13.62.49-7.34.18-14.68.31-22.02.44-2.58.05-5.16.14-7.73.02-1.91-.09-2.68-.89-2.77-2.74-.09-1.81,0-3.64.07-5.45.05-1.32.68-2.26,2.08-2.5,2.33-.4,4.64-1.01,6.98-1.15,3.28-.2,6.57-.05,9.86-.05h0ZM420.41,768.42c1.73.17,2.97-.55,4.1-1.76,3.78-4.01,7.64-7.96,11.4-11.98,2.24-2.39,3.6-5.3,4.47-8.44.59-2.11.07-3.04-2.04-3.5-1.5-.33-3.01-.59-4.53-.79-4.36-.56-8.71-1.13-13.08-1.58-4.92-.52-9.85-1.12-14.79-1.32-7.96-.33-15.92-.36-23.89-.53-1.05-.02-2.09-.12-3.13-.24-4.46-.49-5.4.18-4.68,4.99.74,5,2.57,9.74,5.3,14.02,3.11,4.88,7.35,7.67,13.52,7.64,4.63-.02,9.27.95,13.9,1.56,4.49.59,8.96,1.28,13.45,1.93ZM321.66,741.78c-.07-.01-.13-.03-.2-.04,0-.28.01-.56,0-.84-.08-1.72-.23-1.87-1.98-1.93-.49-.02-.98,0-1.47,0-8.25.14-16.49.22-24.74.45-4.11.11-8.23.4-12.33.78-3.61.34-7.19.94-10.79,1.39-3.32.41-6.65.75-9.96,1.19-1.1.15-2.19.43-3.23.81-1.05.38-1.42,1.12-1.03,2.33,1.04,3.15,2.28,6.19,4.6,8.62,3.9,4.1,7.88,8.11,11.83,12.16.84.86,1.86,1.2,3.05,1.06,2.98-.34,5.96-.67,8.94-1.03,6.37-.77,12.71-1.85,19.1-2.27,6.07-.4,10.37-3.15,13.06-8.37,1.62-3.15,2.83-6.52,4.09-9.84.53-1.42.71-2.97,1.05-4.46Z"/>
      <path class="cls-1" d="M501.26,649.12c-1.72,0-4.46.14-7.17-.04-2.71-.18-5.4-.63-8.08-1.1-1.08-.19-2.15-.65-3.12-1.18-1.84-1-2.27-2.09-1.92-4.17.62-3.64,2.21-5.11,5.83-5.38,1.81-.14,3.62-.34,5.43-.37,1.03-.02,2.16.04,3.09.42,4.18,1.7,8.63,1.53,12.98,2.05,3.81.46,7.65.65,11.44,1.2,5.19.76,7.96-1.63,8.29-7.33.15-2.58.33-5.16.74-7.71.72-4.41,4.75-6.03,8.41-3.38,2.86,2.07,4.65,4.99,4.7,8.52.13,9.92.28,19.86-.05,29.77-.29,8.79-.85,17.61-3.29,26.13-.87,3.05-2.28,6.01-3.84,8.79-.99,1.77-2.48,3.48-4.14,4.63-4.56,3.14-9.4,5.95-14.96,6.79-3.78.57-7.68.68-11.5.5-5.43-.25-10.85-.9-16.25-1.51-1.28-.14-2.56-.69-3.75-1.24-1.32-.61-1.91-1.77-1.88-3.25.05-2.46,2-5.01,4.19-6.04,4.43-2.09,9.17-2.24,13.9-2.55,6.2-.42,12.4-.84,18.6-1.28,1.56-.11,2.8-.82,3.62-2.18,1.01-1.68,2.01-3.36,3.03-5.03.98-1.6.99-3.37.67-5.09-.38-2.04-1.5-3.69-3.7-4.1-2.6-.48-5.23-.97-7.86-1.11-5.23-.27-10.48-.2-15.72-.49-2.35-.13-4.7-.64-7-1.2-2.3-.56-3.85-2.38-3.75-3.98.1-1.6,1.84-3.55,4.01-3.75,3.12-.29,6.28-.29,9.41-.15,4.67.21,9.33.72,14,.96,3.52.18,6.76-.81,9.64-2.9,1.29-.93,2.11-2.02,1.89-3.69-.04-.27,0-.56,0-.84-.06-4.56-1.39-6.04-5.77-7.1-6.3-1.51-12.67-2.08-20.14-1.65Z"/>
      <path class="cls-1" d="M154.01,648.97c0-6.01-.09-12.02.03-18.03.08-3.89,1.86-6.97,5.23-9.03,3.47-2.11,7.51-.9,7.98,3.51.24,2.29.45,4.58.67,6.87.09.9.14,1.81.25,2.71.51,4.14,3.17,6.15,7.97,5.56,4.01-.5,8.06-.72,12.07-1.23,4.13-.52,8.38-.33,12.35-2.01.99-.42,2.2-.5,3.29-.44,2.43.14,4.9.27,7.27.78,2.95.63,4.75,4.21,3.89,7.1-.37,1.26-1.24,2.1-2.42,2.42-4.16,1.14-8.35,2.41-12.73,2.02-8.62-.77-17.15-.43-25.59,1.64-4.46,1.09-6.68,4.84-5.23,9.23.3.91,1.08,1.81,1.88,2.39,3.44,2.53,7.37,3.16,11.54,2.77,3.27-.3,6.54-.52,9.82-.7,3.21-.18,6.42-.29,9.64-.37,1.81-.04,3.45.48,4.72,1.88,1.42,1.56,1.52,3.24-.06,4.6-.96.83-2.23,1.58-3.46,1.78-3.71.61-7.46,1.08-11.21,1.32-3.48.22-6.99,0-10.48.14-2.29.1-4.6.37-6.85.82-4.17.83-6.33,4.66-4.58,8.56,1.13,2.51,2.88,4.76,4.53,7,.46.62,1.52,1.04,2.34,1.11,6.12.5,12.25.88,18.38,1.33,2.85.21,5.74.27,8.54.78,2.23.41,4.39,1.34,6.51,2.19.73.29,1.35.99,1.89,1.62,3,3.54,2.1,6.85-2.38,8.06-2.61.7-5.36.85-8.05,1.21-6.67.89-13.37.88-20.08.45-.62-.04-1.25-.15-1.86-.3-5.37-1.31-10.28-3.7-14.67-6.98-1.84-1.38-3.37-3.39-4.54-5.4-3.01-5.15-4.39-10.84-4.95-16.75-.48-5.14-1.16-10.27-1.56-15.41-.34-4.39-.4-8.8-.59-13.19.16,0,.32,0,.48,0Z"/>
      <path class="cls-1" d="M544.14,378.39c-.17,5.59-.31,11.18-.54,16.77-.16,3.86-2.07,6.79-5.28,8.8-3.39,2.12-6.98.65-7.71-3.25-.55-2.94-.66-5.96-.88-8.95-.21-2.88-1.28-5.17-4.11-6.26-.87-.34-1.92-.45-2.85-.37-5.42.47-10.84.95-16.24,1.6-2.97.36-5.95.86-8.82,1.67-3.87,1.1-7.62.81-11.33-.38-2.56-.82-4.27-4.51-3.48-7.06.39-1.26,1.34-2.03,2.5-2.34,2.35-.63,4.74-1.12,7.12-1.62,3.65-.76,7.27-.52,10.99-.12,5.85.63,11.73,0,17.48-1.39,1.63-.39,3.24-.83,4.84-1.32,1.46-.45,2.43-1.47,2.6-2.99.21-1.87.33-3.75.33-5.63,0-.51-.48-1.17-.93-1.5-2.81-2.1-5.91-3.52-9.5-3.37-3.97.16-7.93.5-11.9.72-3.28.18-6.56.36-9.84.42-1.85.03-3.6-.5-5.06-1.73-1.85-1.56-1.89-3.68.03-5.17.86-.66,1.94-1.24,2.99-1.41,3.44-.55,6.9-1.06,10.37-1.28,4.81-.3,9.64-.25,14.46-.48,1.59-.07,3.2-.39,4.73-.83,3.31-.93,5.26-4.47,3.89-7.58-1.17-2.65-2.87-5.1-4.5-7.52-1.01-1.5-2.88-1.39-4.42-1.52-5.01-.42-10.04-.62-15.06-.95-3.27-.21-6.58-.26-9.8-.82-2.36-.41-4.69-1.34-6.87-2.39-1.91-.92-2.9-2.8-3.23-4.9-.27-1.73.57-3.07,2.01-3.83,1.21-.64,2.58-1.14,3.93-1.31,3.73-.48,7.48-.95,11.23-1.08,4.89-.17,9.79-.03,14.69.01.83,0,1.69.08,2.48.3,5.31,1.47,10.19,3.94,14.61,7.16,3.4,2.48,4.85,6.42,6.36,10.19,1.65,4.13,2.32,8.5,2.83,12.86,1.11,9.58,2.05,19.17,1.87,28.84Z"/>
      <path class="cls-1" d="M195.86,361.79c-3.68-.35-7.35-.8-11.04-1.01-3-.17-6.02-.21-9.01-.02-2.7.17-5.12,1.39-7.27,3.01-.62.47-1.21,1.29-1.32,2.03-.33,2.16-.21,4.32.7,6.38.52,1.19,1.45,1.86,2.64,2.2,7.32,2.09,14.84,3.45,22.36,2.42,5.24-.72,10.11.3,15.12.97.34.05.69.14,1.02.23,3.1.9,4.27,2.14,4.2,4.43-.09,3.05-1.79,5.48-4.59,5.97-3.86.68-7.72.85-11.58-.45-2.09-.7-4.36-.94-6.57-1.16-3.89-.39-7.8-.59-11.69-.92-1.67-.14-3.33-.35-4.98-.64-3.76-.66-6.55,1.11-7.2,4.85-.42,2.47-.53,4.99-.79,7.49-.11,1.04-.22,2.09-.43,3.11-.75,3.64-4.01,5.28-7.34,3.52-3.55-1.87-5.63-5.02-5.7-8.96-.18-10.34-.26-20.69.03-31.03.22-7.74.88-15.5,2.88-23.03.87-3.28,2.19-6.47,3.55-9.6,1.35-3.11,3.77-5.39,6.77-6.92,3.23-1.65,6.55-3.14,9.83-4.69,2.69-1.26,5.61-1.13,8.45-1.23,5.86-.19,11.73-.23,17.53.99,1.35.28,2.79.14,4.18.23.48.03.96.17,1.44.28,2.19.54,4.18,1.36,4.7,3.88.41,2.03-1.12,4.95-3.28,6.11-2.92,1.58-6.08,2.5-9.4,2.69-5.79.33-11.58.55-17.37.91-2.36.15-4.74.43-7.05.92-.99.21-2.08.92-2.71,1.73-1.28,1.65-2.32,3.49-3.37,5.3-1.04,1.81-.96,3.79-.44,5.71.49,1.79,1.65,3.18,3.58,3.43,3.73.49,7.47.95,11.23,1.19,4.53.29,9.08.23,13.61.53,2.07.14,4.15.62,6.13,1.25,2.41.76,3.33,2.23,3.06,4.14-.25,1.76-2.32,3.44-4.41,3.5-1.82.04-3.64,0-5.45,0l-.02.25Z"/>
      <path class="cls-1" d="M312.06,708.62c-4.52-.39-9.06-.59-13.55-1.23-2.87-.41-5.74-1.26-8.46-2.29-3.65-1.39-4.03-3.04-1.65-6.2,2.53-3.36,5.45-6.41,10-6.52,3.62-.09,7.25.23,10.86.54,3.14.26,6.32.71,9.36-.28,8.26-2.7,9.52-8.68,7.7-15.61-.56-2.14-2.83-2.99-4.87-3.08-5.93-.28-11.89-.55-17.77.6-4.17.82-8.21.44-12.17-.91-1.16-.39-2.34-1.04-3.21-1.89-2.03-1.97-1.7-4.85.62-6.53,1.63-1.18,3.5-1.68,5.47-1.94,4.49-.59,8.89.05,13.33.63,6.19.8,12.31.51,17.8-3.04.82-.53,1.66-1.05,2.4-1.69,1.89-1.62,2.89-5.49,1.74-7.67-.45-.86-1.59-1.68-2.55-1.89-2.38-.51-4.83-.93-7.25-.9-6.43.08-12.85.48-19.27.62-2.79.06-5.61.03-8.35-.37-1.42-.21-2.88-1.1-4.03-2.04-1.78-1.46-1.61-3.7.33-4.96,1.07-.7,2.42-1.16,3.69-1.33,8.38-1.1,16.77-2.1,25.26-1.43,2.78.22,5.59.14,8.39.16,2.12.02,2.61-.38,2.72-2.51.15-2.99.99-5.8,2.23-8.46.59-1.27,1.55-2.55,2.67-3.37,2.37-1.74,4.93-.71,5.65,2.14.31,1.21.45,2.48.46,3.73.05,3.69-.39,7.44.08,11.08,1.15,9.05.88,18.13,1.35,27.19.32,6.22-.3,12.31-1.45,18.31-1.29,6.74-4.41,12.63-10.15,16.84-3.31,2.43-6.97,3.82-11.07,3.95-2.09.07-4.19.01-6.28.01,0,.11-.01.22-.02.33Z"/>
      <path class="cls-1" d="M383.5,708.29c-2.03,0-4.06-.03-6.08,0-3.1.05-5.89-.87-8.54-2.46-7.17-4.28-10.97-10.82-12.51-18.77-1.06-5.48-1.72-11.01-1.42-16.65.37-6.91.3-13.84.59-20.75.11-2.71.71-5.4.97-8.11.14-1.45.07-2.92.04-4.37-.04-2.51-.26-5.03-.14-7.53.06-1.21.56-2.46,1.13-3.56,1.16-2.26,3.03-2.73,4.99-1.12,1.09.89,2.1,2.15,2.57,3.46,1.03,2.88,1.73,5.88,2.47,8.86.5,2,.42,2.08,2.4,2.05,2.51-.04,5.03-.35,7.53-.29,5.86.13,11.73.35,17.58.65,2.85.15,5.71.47,8.53.94,1.4.24,2.85.79,4.04,1.58,1.8,1.19,1.93,2.88.43,4.46-1.58,1.67-3.6,2.81-5.92,2.76-6.64-.13-13.27-.44-19.9-.67-4.26-.15-8.53-.46-12.73.6-3.03.76-3.47,1.45-3.56,4.48-.09,2.91,1.14,4.91,3.51,6.45,3.79,2.47,7.88,4.01,12.42,3.82,4.25-.18,8.48-.62,12.71-1.05,3.18-.33,6.28.02,9.35.72,1,.23,1.98.73,2.84,1.3,3.1,2.02,3.06,5.46-.06,7.49-2.17,1.42-4.65,2.05-7.17,2.07-3.33.03-6.67-.41-10-.51-5.03-.15-10.06-.31-15.08-.21-2.75.05-4.97,2.14-5.32,4.81-.25,1.91-.3,3.95.05,5.83.86,4.56,5.2,8.13,10.25,8.48,2.42.17,4.88-.1,7.32-.21,3.56-.16,7.12-.56,10.67-.45,1.72.05,3.55.8,5.09,1.66,2.33,1.31,4.13,3.33,5.56,5.61,1.68,2.67,1.44,3.9-1.43,5.05-2.84,1.13-5.79,2.21-8.79,2.65-4.75.7-9.59.84-14.39,1.22,0-.1-.02-.2-.02-.31Z"/>
      <path class="cls-1" d="M385.17,386.85c-3.81-.19-7.72-.44-11.63-.56-3.16-.09-3.44.35-4.08,3.44-.55,2.65-1.32,5.27-2.23,7.82-.4,1.12-1.23,2.24-2.17,3-2.36,1.92-4.84,1.18-5.71-1.73-.53-1.78-.7-3.7-.8-5.57-.1-1.95.21-3.91.11-5.86-.18-3.41-.53-6.81-.82-10.21-.05-.56-.17-1.11-.18-1.67-.15-7.62-.43-15.24-.36-22.86.05-5.16.3-10.35,1.6-15.39,1.94-7.5,5.91-13.53,12.8-17.4,2.35-1.32,4.84-2,7.57-2.18,7.01-.46,13.98-.11,20.88.97,3.07.48,6.07,1.56,9.02,2.6,1.87.66,2.49,2.07,1.72,3.66-1.93,3.99-4.8,7.23-9.21,8.26-2.8.65-5.83.51-8.75.41-2.71-.09-5.4-.72-8.11-.91-4.26-.3-8.02,1.04-11.05,4.07-2.24,2.25-2.7,5.21-2.52,8.18.33,5.45,1.71,6.86,7.19,7.19,5.02.3,10.05.18,15.06-.57,3.89-.58,7.79-.75,11.65.26,1.14.3,2.26.73,3.33,1.23,1.67.77,2.54,2.07,2.57,3.97.03,1.92-.88,3.16-2.45,4.07-1.86,1.08-3.89,1.69-6.01,1.59-4.53-.21-9.07-.48-13.57-.96-6.28-.67-12.09.42-17.41,3.91-2.44,1.6-3.6,3.79-3.47,6.72.11,2.23.7,3.16,2.85,3.82,4.14,1.28,8.37,1.29,12.66,1.08,6.83-.34,13.68-.55,20.52-.64,2.4-.03,4.71.68,6.24,2.85,1.1,1.55,1.16,2.37-.28,3.64-.96.84-2.17,1.65-3.39,1.9-2.86.59-5.78.98-8.7,1.2-4.25.33-8.51.44-12.87.65Z"/>
      <path class="cls-1" d="M338.39,361.01c0,3.08.12,6.16-.03,9.23-.23,4.6-.68,9.19-.97,13.78-.12,1.87-.07,3.76-.1,5.64-.05,2.58.06,5.17-.21,7.72-.2,1.92-1.08,3.82-3.26,4.16-2.15.33-3.7-1.15-4.47-2.87-1.18-2.65-1.92-5.51-2.8-8.29-.19-.59-.16-1.25-.31-1.85-.44-1.8-.9-2.25-2.75-2.22-2.51.04-5.02.32-7.53.38-8.26.22-16.49-.2-24.67-1.29-1.49-.2-3.03-.66-4.37-1.34-2.55-1.3-2.65-4.05-.33-5.73,1.71-1.23,3.71-1.68,5.74-1.75,6.92-.25,13.83-.02,20.73.68,4,.41,7.96.1,11.82-1.07,2.23-.68,2.72-1.51,2.94-3.76.3-3.09-1.02-5.19-3.49-6.86-5.52-3.73-11.66-4.53-18.06-3.79-4.16.48-8.29,1.2-12.51.96-2.19-.12-4.23-.62-6.24-1.59-3.31-1.6-3.6-5.83-.29-7.95,1.93-1.24,4.12-1.87,6.37-1.83,4.25.09,8.5.51,12.75.58,4.46.08,8.94.1,13.38-.23,3.26-.24,4.46-1.73,5.01-4.95,1.19-6.94-2.72-12.45-9.62-13.87-2.77-.57-5.42-.03-8.12.19-2.57.22-5.14.53-7.72.65-6.23.29-10.7-2.58-13.77-7.87-1.25-2.14-1.12-3.37,1.16-4.41,2.71-1.23,5.59-2.26,8.51-2.81,7.6-1.41,15.32-1.08,23-.81,1.87.07,3.84.84,5.54,1.72,6.68,3.47,10.97,8.92,12.96,16.2,1.08,3.94,1.59,7.95,1.68,12.01.09,4.4.02,8.81.02,13.22,0,0,0,0,0,0Z"/>
      <path class="cls-2" d="M473.28,568.3c-7.97,0-15.94.1-23.91-.02-11.74-.18-23.48-.44-35.21-.84-7.26-.25-14.51-.81-21.76-1.24-.42-.02-.83-.13-1.24-.21-3.5-.71-3.64-.88-3.63-4.33,0-.63.08-1.27-.01-1.89-.42-2.99,1.01-4.8,3.67-5.79,3.07-1.14,6.1-2.49,9.27-3.25,9.99-2.4,19.76-5.51,29.43-8.94,3.59-1.27,7.3-1.74,11.1-1.82,5.82-.11,11.49.37,17.18,1.94,5.89,1.63,12.05,2.31,18.05,3.56,4.23.89,8.37,2.21,12.61,3.03,3.21.62,6.5.83,9.77,1.11,4.03.34,8.08.54,12.12.86,2.1.16,2.55.63,2.51,2.76-.04,2.3-.11,4.6-.36,6.89-.33,2.99-2.16,4.91-4.86,6.07-3.25,1.4-6.66,2.09-10.19,2.11-8.18.04-16.36.01-24.54.01,0,0,0-.02,0-.02Z"/>
      <path class="cls-2" d="M445.18,485.13c-5.88.21-11.44-1.07-16.84-3.15-8.3-3.2-16.91-5.32-25.46-7.68-3.29-.91-6.48-2.19-9.67-3.39-1.94-.73-3-2.21-3.06-4.34-.03-1.33-.05-2.66-.13-3.98-.06-1.02.45-1.65,1.33-1.87,1.55-.38,3.13-.79,4.71-.88,7.12-.38,14.24-.71,21.36-.93,8.04-.25,16.08-.21,24.11-.55,16.35-.68,32.7-.9,49.07-.67,4.33.06,8.68.1,12.98.5,2.17.2,4.39.93,6.38,1.85,3.2,1.47,4.25,4.46,4.5,7.76.11,1.46.02,2.94.06,4.4.03,1.34-.54,2.15-1.91,2.26-2.99.25-5.99.45-8.98.69-6.4.51-12.78.94-19.03,2.72-5.56,1.59-11.27,2.67-16.94,3.89-3.81.82-7.64,1.61-11.49,2.19-3.65.54-7.34.79-11.02,1.16Z"/>
      <path class="cls-2" d="M213.9,458.1c10.06,0,20.13-.06,30.19.02,9.3.07,18.6.13,27.89.48,9.84.36,19.67,1.05,29.51,1.61.62.04,1.24.2,1.85.36,2.34.6,2.54.93,2.33,3.32-.09.97-.15,1.96-.11,2.93.06,1.84-.72,3.12-2.41,3.77-2.87,1.1-5.69,2.4-8.65,3.16-10.63,2.72-21.1,5.96-31.47,9.56-3.25,1.13-6.65,1.44-10.1,1.57-5.93.22-11.65-.68-17.4-2.06-8.01-1.92-16.2-3.09-24.15-5.18-5.81-1.53-11.66-2.08-17.57-2.49-3.41-.23-6.82-.56-10.23-.81-1.18-.09-1.79-.59-1.76-1.84.04-1.96-.05-3.92.07-5.87.21-3.32,1.89-5.76,5.01-6.85,2.35-.82,4.85-1.5,7.32-1.63,6.56-.34,13.14-.36,19.71-.5,0,.15,0,.29,0,.44Z"/>
      <path class="cls-2" d="M227.33,567.89c-9.16-.12-18.32-.22-27.47-.38-2.23-.04-4.47-.22-6.69-.45-6.32-.66-9.12-3.6-9.62-10.05-.09-1.18-.02-2.38-.06-3.57-.04-1.37.6-2.07,1.97-2.18,3.55-.26,7.1-.54,10.65-.82,2.71-.21,5.46-.24,8.14-.69,3.57-.6,7.07-1.56,10.61-2.32,3.89-.84,7.78-1.66,11.68-2.47,5.53-1.16,11.05-2.34,16.59-3.44,1.84-.36,3.72-.66,5.59-.7,5.31-.1,10.64-.32,15.81,1.25,2.34.71,4.69,1.41,6.97,2.28,7.53,2.86,15.29,4.9,23.06,6.97,3.56.95,7,2.37,10.47,3.63,1.86.67,2.72,2.04,2.63,4.06-.05,1.18.07,2.38.23,3.55.15,1.1-.26,1.79-1.26,2.09-1,.31-2.01.61-3.04.74-1.87.22-3.76.34-5.64.44-7.95.42-15.91.86-23.86,1.19-3.7.15-7.41.05-11.12.1-8.39.13-16.78.25-25.17.44-3.49.08-6.97.36-10.46.55,0-.07,0-.15,0-.22Z"/>
      <path class="cls-2" d="M486.4,616.99c-3.52-.26-7.01-.2-10.35-1.59-.83-.34-1.91-.19-2.86-.09-4.02.41-8.03.95-12.06,1.33-3.75.36-7.52.64-11.29.8-1.29.06-2.66-.16-3.9-.56-3.14-1.02-6.22-.25-9.35-.09-6.49.34-12.99.58-19.48.63-1.75.01-3.49-.88-5.26-1.24-1.23-.25-2.49-.3-3.74-.46-2.49-.33-4.83-.91-7.17-2.06-2.12-1.05-4.69-1.25-7.1-1.61-3.31-.48-5.91-2-7.9-4.65-1.3-1.72-1.31-2.65.18-4.24,3.18-3.37,7.07-5.46,11.67-6.09,2.83-.39,5.69-.71,8.54-.85,4.68-.23,9.42.1,14.03-.54,4.5-.63,8.75.53,13.12.68,1.54.05,3.07.19,4.6.27,7.61.37,15.21.74,22.82,1.1,1.75.08,3.5.05,5.24.15,6.48.36,12.97.76,19.45,1.14.91.05,1.82.12,2.72.13,7.06.14,14.12.27,21.19.4,2.58.05,2.98.55,2.13,3.05-1.58,4.64-4.38,8.47-8.34,11.28-1.46,1.04-3.45,1.54-5.27,1.82-3.86.59-7.76.87-11.65,1.28Z"/>
      <path class="cls-2" d="M198.41,599.17c2.52,0,5.04.1,7.55-.02,5.65-.28,11.29-.68,16.94-1.03,1.19-.07,2.37-.18,3.56-.22,7.89-.3,15.79-.55,23.68-.88,4.81-.2,9.62-.51,14.43-.81,1.11-.07,2.21-.4,3.32-.4,4.74,0,9.48-.02,14.22.12,4.26.13,8.51.41,12.76.72,5.52.4,10.55,2.06,14.54,6.12,2.04,2.06,1.91,2.86.16,5.18-2.5,3.31-6.09,3.97-9.8,4.47-2.3.31-4.42.96-6.55,1.99-1.88.91-4.17.95-6.28,1.39-2.25.46-4.49.94-6.74,1.39-.75.15-1.51.35-2.26.32-8.03-.34-16.05-.74-24.08-1.07-1.17-.05-2.45-.06-3.5.36-1.77.7-3.54.82-5.35.67-6.47-.51-12.94-1.08-19.41-1.65-.69-.06-1.38-.25-2.04-.44-1.54-.45-2.99-.2-4.52.23-1.86.53-3.81.97-5.73,1.03-5.51.16-11.02.2-16.47-1.14-2.83-.7-5.24-1.85-7.12-4.08-2.18-2.58-4.1-5.33-5.28-8.52-.91-2.47-.42-3.2,2.22-3.29,3.42-.12,6.85-.11,10.28-.15.49,0,.98,0,1.47,0,0-.09,0-.19,0-.28Z"/>
      <path class="cls-2" d="M193.29,426.09c-2.45,0-4.89,0-7.34,0-.63,0-1.27,0-1.88-.1-1.67-.29-2.17-1.06-1.66-2.66.28-.86.65-1.71,1.14-2.47,1.36-2.11,2.71-4.24,4.22-6.25,1.83-2.44,4.27-3.84,7.36-4.35,6.44-1.07,12.89-1.51,19.39-.88.42.04.88.02,1.23.2,1.97,1.01,4.01.9,6.13.68,5.97-.61,11.95-1.18,17.93-1.6,2.49-.17,5.01.14,7.52.15,5.24,0,10.48.01,15.71-.1,2.78-.06,5.56-.44,8.35-.57,2.94-.14,5.79.07,8.66,1.08,2.12.75,4.53.75,6.81.98,1.83.18,3.44.75,5.13,1.55,2.02.97,4.38,1.26,6.6,1.8,1.22.3,2.46.48,3.69.76,2.98.67,4.7,2.87,6.26,5.23.77,1.17-.09,2.02-.8,2.75-3.19,3.3-6.97,5.67-11.59,6.25-3.8.47-7.65.63-11.48.88-4.53.29-9.05.54-13.58.78-.97.05-1.96.04-2.93-.04-4.94-.38-9.87-.89-14.81-1.17-7.95-.46-15.91-.78-23.86-1.15-4.12-.19-8.24-.29-12.35-.52-4.74-.27-9.47-.73-14.21-.95-3.21-.15-6.42-.03-9.64-.03,0-.08,0-.17,0-.25Z"/>
      <path class="cls-2" d="M502.24,425.75c-7.1.5-14.21,1-21.31,1.49-2.65.18-5.3.35-7.95.46-4.68.18-9.36.26-14.04.47-8.86.4-17.73.85-26.59,1.3-.83.04-1.68.17-2.48.38-3,.78-5.97.04-8.96-.06-3.35-.12-6.71-.14-10.05-.39-4.31-.32-8.64-.61-12.9-1.3-4.24-.69-7.5-3.26-10.21-6.53-.75-.9-.64-1.66-.01-2.63,2.21-3.38,5.41-4.88,9.29-5.32,1.52-.17,3.04-.47,4.53-.8.81-.18,1.66-.44,2.32-.9,1.75-1.2,3.69-1.53,5.74-1.71,2.7-.23,5.38-.47,7.99-1.48,2.93-1.13,6.08-.54,9.15-.44,6.84.23,13.72,1,20.52.56,8.16-.53,16.16.62,24.23,1.02.97.05,1.92.47,2.88.52,1.31.06,2.7.2,3.92-.16,4.31-1.26,8.64-1.5,13.06-.94,3.59.46,7.2.83,10.79,1.33,1.93.27,3.5,1.32,4.87,2.69,2.72,2.7,4.74,5.87,6.24,9.37.95,2.22.41,3.22-2,3.33-3,.14-6.01.03-9.02.03,0-.1-.01-.19-.02-.29Z"/>
      <path class="cls-2" d="M182.78,580.81c-.63-2.86.88-4.57,3.24-5.41,2.34-.83,4.82-1.41,7.28-1.77,2.55-.37,5.15-.46,7.73-.47,17.34-.05,34.68-.02,52.01-.08,4.89-.02,9.81.06,14.66-.44,9.61-.98,19.23-1.24,28.88-1.16,3.97.03,7.78.79,11.22,2.91.65.4,1.29.84,1.87,1.34,3.25,2.85,2.2,8.77-1.83,10.41-.38.15-.82.19-1.23.21-2.58.15-5.16.27-7.74.44-8.15.53-16.3,1.09-24.45,1.63-6.83.45-13.65.9-20.48,1.35-8.01.53-16.02,1.09-24.04,1.56-4.11.24-8.24.37-12.36.48-6.64.19-13.27.32-19.91.5-1.25.03-2.5.23-3.76.32-4.81.34-8.11-1.54-9.97-5.99-.77-1.83-1.04-3.86-1.54-5.81.14-.01.27-.02.41-.03Z"/>
      <path class="cls-2" d="M500.07,592.28c-9.99-.29-19.99-.51-29.98-.9-7.75-.3-15.5-.74-23.23-1.26-8.57-.57-17.13-1.34-25.7-1.96-7.04-.51-14.08-.92-21.12-1.38-3.62-.24-7.24-.56-10.87-.75-1.33-.07-2.3-.6-2.96-1.67-.55-.88-1.1-1.81-1.42-2.79-.86-2.65-.27-4.36,1.9-6.12,2.64-2.15,5.78-3.2,9.06-3.53,3.6-.35,7.25-.34,10.88-.35,2.79,0,5.59.15,8.38.3,3.49.19,6.97.44,10.45.66,1.05.07,2.09.16,3.14.17,18.74.13,37.48.22,56.22.39,5.59.05,11.18.15,16.76.54,2.68.18,5.39.86,7.95,1.7,2.95.97,3.73,2.44,3.72,5.57,0,2.58-.67,5.02-2.04,7.17-1.73,2.72-4.02,4.64-7.58,4.24-1.17-.13-2.38-.02-3.56-.02,0,0,0-.01,0-.02Z"/>
      <path class="cls-2" d="M467.23,452.47c-5.73,0-11.47.04-17.2-.01-9.3-.09-18.57.29-27.85.9-7.03.46-14.11.26-21.16.43-2.71.07-5.34-.37-7.77-1.42-1.82-.78-3.57-1.91-5.08-3.19-1.8-1.53-1.93-3.68-1.01-5.78.91-2.08,2.32-3.64,4.83-3.78,7.04-.41,14.08-.81,21.12-1.3,6.76-.47,13.5-1.09,20.26-1.55,7.45-.51,14.91-.9,22.37-1.35,6.34-.38,12.69-.79,19.03-1.15,3.42-.19,6.84-.34,10.26-.44,6.36-.18,12.72-.33,19.07-.45,1.04-.02,2.08.2,3.13.23,2.44.06,4.01,1.52,5.26,3.36,1.82,2.68,2.71,5.65,2.47,8.92-.16,2.13-1.96,4.19-4.66,4.77-2.99.65-6.05,1.28-9.09,1.36-11.32.3-22.64.36-33.97.51,0-.02,0-.04,0-.06Z"/>
      <path class="cls-2" d="M196.18,433.68c9.36.32,18.72.57,28.07.97,7.33.31,14.65.74,21.96,1.24,8.92.6,17.82,1.35,26.74,1.98,7.1.5,14.21.93,21.32,1.36,3.21.19,6.42.34,9.63.43,2.5.08,3.82,1.83,4.64,3.7.82,1.85.94,4.08-.89,5.6-1.43,1.18-2.99,2.33-4.68,3.05-2.97,1.25-6.11,1.91-9.4,1.78-8.03-.31-16.07-.39-24.08-.89-15.64-.97-31.3-.67-46.95-.77-8.11-.05-16.22.1-24.33-.09-3.68-.09-7.38-.59-11.01-1.23-4.86-.86-6.64-3.59-5.67-8.37.33-1.61,1.01-3.2,1.77-4.67,1.45-2.79,3.81-4.16,7.01-4.05,1.96.07,3.92.01,5.87.01,0-.01,0-.03,0-.04Z"/>
      <path class="cls-2" d="M188.87,543.6c-2.44-.17-4.67-.34-6.9-.47-1.11-.07-1.88-.54-2.16-1.63-.97-3.7-1.33-7.44-.41-11.19.2-.83.78-1.66,1.41-2.26,2.48-2.36,4.97-4.73,7.6-6.91,2.71-2.25,6.16-2.95,9.48-3.71,2.5-.57,5.1-.88,7.67-.93,10.76-.2,21.53-.28,32.29-.37,3.58-.03,7.05,4.34,6.41,7.87-.52,2.9-1.77,5.41-3.54,7.73-.63.82-1.35,1.25-2.39,1.48-5.38,1.19-10.77,2.33-16.07,3.81-3.55.99-6.93,2.58-10.41,3.79-1.42.5-2.92.89-4.42,1.05-5.13.57-10.27,1.03-15.41,1.51-1.11.11-2.23.16-3.14.22Z"/>
      <path class="cls-2" d="M476.61,508.79c-5.38,0-10.76,0-16.14,0-3.41,0-6.42-3.21-6.19-6.67.19-2.95,1.29-5.62,3.33-7.73.85-.88,2.21-1.55,3.44-1.76,7.19-1.2,14.05-3.6,20.99-5.69.47-.14.96-.26,1.37-.51,4.27-2.57,9.08-2.36,13.79-2.72,2.64-.2,5.31-.38,7.89-.93,3.66-.78,7.23.09,10.83.26.51.02,1.27.54,1.44,1.01,1.23,3.42,1.36,6.97.76,10.52-.15.88-.86,1.77-1.52,2.45-2,2.05-4.06,4.05-6.17,5.98-3.06,2.8-7.02,3.7-10.85,4.68-2.54.65-5.22.96-7.85,1.04-5.03.16-10.06.05-15.09.05,0,.01,0,.03,0,.04Z"/>
      <path class="cls-2" d="M219.48,508.74c-5.31,0-10.63.09-15.93-.02-5.61-.12-10.82-1.98-15.89-4.2-1.05-.46-1.92-1.38-2.8-2.17-1.04-.93-1.92-2.07-3.02-2.9-5.1-3.87-4.95-8.95-3.41-14.36.57-2,.81-2,2.94-2.29,4.64-.65,9.19.13,13.77.57,3.26.31,6.55.45,9.81.8,1.57.17,3.2.44,4.65,1.03,8.11,3.31,16.48,5.73,25.07,7.33,2.42.45,4.17,1.43,5.12,3.71.41.97.86,1.91,1.24,2.88,1.28,3.29.74,6.11-2,8.51-.91.79-1.78,1.19-2.98,1.18-5.52-.04-11.04-.02-16.56-.02,0-.01,0-.02,0-.04Z"/>
      <path class="cls-2" d="M474.52,516.79c5.73.16,11.46.17,17.18.52,5.22.32,10.11,2.05,14.81,4.28.74.35,1.38.95,1.99,1.52,1.48,1.39,2.79,2.97,4.37,4.22,3.58,2.84,4.01,6.5,3.04,10.57-1.1,4.64-.44,3.96-5.14,4.37-2.88.25-5.84-.16-8.75-.36-2.92-.2-5.83-.6-8.76-.75-3.57-.18-6.96-.69-10.38-2.04-7.66-3.05-15.62-5.24-23.75-6.73-1.89-.35-3.3-1.13-4.13-2.81-.68-1.37-1.37-2.76-1.79-4.22-.94-3.25,0-5.79,2.75-7.68.47-.32,1.18-.42,1.77-.42,5.59-.03,11.18-.02,16.77-.02,0-.14,0-.29,0-.43Z"/>
      <path class="cls-2" d="M313.42,287.08c-10.25-.29-20.11-.43-29.95-.91-4.59-.23-9.13-1.15-13.7-1.71-3.46-.42-6.93-.73-10.39-1.16-1.24-.15-2.48-.44-3.68-.79-1.59-.46-1.82-.99-1.43-2.64.88-3.73,3.03-6.74,5.53-9.51,2.76-3.06,5.7-5.96,8.47-9.01,2.19-2.42,4.87-3.08,7.97-2.64,6.15.88,12.29,1.81,18.45,2.61,2.9.38,5.84.43,8.75.75,1.22.13,2.51.37,3.59.91,2.67,1.33,4.9,3.24,6.45,5.83,2.6,4.35,4.55,8.97,5.64,13.93.15.67.24,1.39.2,2.07-.09,1.74-.6,2.2-2.31,2.25-.7.02-1.4,0-2.1,0-.63,0-1.26,0-1.48,0Z"/>
      <path class="cls-2" d="M385.14,286.73c-1.68,0-3.36.01-5.03,0-2.88-.03-3.79-1.01-2.93-3.78,1.15-3.73,2.55-7.39,3.99-11.02,1.44-3.63,4.01-6.34,7.38-8.32,1.36-.8,2.78-1.08,4.37-1.2,4.59-.35,9.16-.9,13.73-1.44,5.12-.6,10.24-1.28,15.36-1.93,1.73-.22,3.12.43,4.39,1.55,4.67,4.15,8.81,8.79,12.46,13.84,1.12,1.55,1.81,3.46,2.47,5.29.6,1.65.13,2.41-1.56,2.73-2.88.53-5.78.95-8.69,1.33-4.22.55-8.44,1.03-12.66,1.54-1.52.18-3.04.49-4.57.54-9.57.33-19.13.6-28.7.89Z"/>
      <path class="cls-2" d="M420.41,768.42c-4.48-.65-8.96-1.34-13.45-1.93-4.63-.61-9.27-1.58-13.9-1.56-6.17.03-10.41-2.76-13.52-7.64-2.72-4.28-4.55-9.02-5.3-14.02-.71-4.81.22-5.49,4.68-4.99,1.04.11,2.09.21,3.13.24,7.96.17,15.93.2,23.89.53,4.94.2,9.87.8,14.79,1.32,4.37.46,8.73,1.02,13.08,1.58,1.52.2,3.04.46,4.53.79,2.11.47,2.62,1.39,2.04,3.5-.87,3.14-2.23,6.04-4.47,8.44-3.77,4.03-7.62,7.97-11.4,11.98-1.14,1.21-2.37,1.93-4.1,1.76Z"/>
      <path class="cls-2" d="M321.66,741.78c-.34,1.49-.51,3.04-1.05,4.46-1.25,3.32-2.47,6.69-4.09,9.84-2.69,5.23-6.99,7.97-13.06,8.37-6.39.42-12.74,1.5-19.1,2.27-2.98.36-5.96.69-8.94,1.03-1.19.14-2.21-.2-3.05-1.06-3.95-4.05-7.93-8.06-11.83-12.16-2.31-2.43-3.56-5.47-4.6-8.62-.4-1.21-.03-1.95,1.03-2.33,1.04-.38,2.14-.66,3.23-.81,3.31-.44,6.64-.78,9.96-1.19,3.6-.45,7.18-1.05,10.79-1.39,4.1-.38,8.21-.67,12.33-.78,8.24-.23,16.49-.31,24.74-.45.49,0,.98-.02,1.47,0,1.75.06,1.9.21,1.98,1.93.01.28,0,.56,0,.84.07.01.13.03.2.04Z"/>
    </g>
  </g>
</svg>